<svg id="Capa_1" data-name="Capa 1" xmlns="http://www.w3.org/2000/svg" viewBox="0 0 46.78 46.77"><defs><style>.cls-1{fill:#020202;}</style></defs><path class="cls-1" d="M39.42,31.2a3.06,3.06,0,0,1,.46.35c2.48,2.46,4.94,4.93,7.41,7.4a1.59,1.59,0,0,1,0,2.6l-5.82,5.82a1.61,1.61,0,0,1-2.64,0L31.45,40a4.41,4.41,0,0,1-.35-.47c-.18.26-.29.41-.39.57-1.57,2.34-3.14,4.68-4.69,7a1.64,1.64,0,0,1-1.69.9A1.67,1.67,0,0,1,23,46.66Q18.39,31.32,13.77,16a1.63,1.63,0,0,1,.34-1.76,1.61,1.61,0,0,1,1.75-.34L46.6,23.1a1.59,1.59,0,0,1,1.24,2.13,1.87,1.87,0,0,1-.77.85l-7.16,4.78ZM25.09,42.83l.32-.43,3.94-5.91a1.58,1.58,0,0,1,2.74-.27Q36,40.09,39.83,44c.26.25.38.26.64,0,1.12-1.16,2.26-2.29,3.41-3.41.25-.25.27-.37,0-.64-2.6-2.58-5.19-5.18-7.79-7.77a1.58,1.58,0,0,1,.27-2.69l5.9-3.94c.14-.09.32-.15.42-.35L17.53,17.63Z" transform="translate(-1.18 -1.28)"/><path class="cls-1" d="M13.65,5.18c0-.77,0-1.53,0-2.29a1.56,1.56,0,1,1,3.11,0c0,1.52,0,3,0,4.57a1.56,1.56,0,1,1-3.11,0C13.64,6.7,13.65,5.94,13.65,5.18Z" transform="translate(-1.18 -1.28)"/><path class="cls-1" d="M5.1,13.75H7.34a1.56,1.56,0,1,1,0,3.11c-1.5,0-3,0-4.52,0a1.56,1.56,0,1,1,0-3.11Z" transform="translate(-1.18 -1.28)"/><path class="cls-1" d="M4.3,5.84a1.46,1.46,0,0,1,.89-1.29,1.42,1.42,0,0,1,1.64.2q1.71,1.63,3.33,3.34a1.5,1.5,0,0,1-.07,2.07,1.52,1.52,0,0,1-2.11.1C6.85,9.18,5.77,8.07,4.68,7A1.41,1.41,0,0,1,4.3,5.84Z" transform="translate(-1.18 -1.28)"/><path class="cls-1" d="M24.66,4.4A1.48,1.48,0,0,1,26,5.3a1.4,1.4,0,0,1-.21,1.63q-1.64,1.71-3.34,3.34a1.55,1.55,0,0,1-2.16-2.2c1.08-1.12,2.19-2.21,3.3-3.3A1.43,1.43,0,0,1,24.66,4.4Z" transform="translate(-1.18 -1.28)"/><path class="cls-1" d="M4.29,24.73a1.63,1.63,0,0,1,.47-1.17c1-1,2.07-2.1,3.13-3.13a1.55,1.55,0,0,1,2.19,2.2C9,23.69,8,24.75,6.92,25.79a1.46,1.46,0,0,1-1.71.28A1.5,1.5,0,0,1,4.29,24.73Z" transform="translate(-1.18 -1.28)"/></svg>