<svg id="Capa_1" data-name="Capa 1" xmlns="http://www.w3.org/2000/svg" viewBox="0 0 50 34.38"><defs><style>.cls-1{fill:#fdfdfd;}.cls-2{fill:#1c2746;}</style></defs><path class="cls-1" d="M25.1,7.87H3.67c-.23,0-.46,0-.68,0A3.1,3.1,0,0,0,.29,10.1a.48.48,0,0,0,.24.66q12.12,8,24.21,16a.54.54,0,0,0,.72,0q3.91-2.61,7.85-5.18C38.73,18,44.15,14.37,49.59,10.82a.62.62,0,0,0,.27-.87,3.13,3.13,0,0,0-3.14-2.08Zm0,34.38H46.53c.23,0,.46,0,.68,0A3.1,3.1,0,0,0,49.9,40a.46.46,0,0,0-.23-.62q-9.49-6-19-12a.5.5,0,0,0-.64,0c-1.28.86-2.58,1.69-3.85,2.56A1.82,1.82,0,0,1,24,30c-1.28-.87-2.58-1.7-3.86-2.56a.45.45,0,0,0-.6,0Q10,33.42.47,39.43a.38.38,0,0,0-.2.5,3.1,3.1,0,0,0,3.16,2.31Z" transform="translate(-0.1 -7.87)"/><path class="cls-2" d="M.1,14.32c.15-.1.23,0,.31.1l16.4,10.8.07.07c0,.15-.17.17-.26.24L.44,35.75c-.1.07-.19.19-.34.15Z" transform="translate(-0.1 -7.87)"/><path class="cls-2" d="M50.1,35.9c-.14.05-.21-.06-.3-.12q-8.16-5.14-16.3-10.31l-.23-.16.44-.31L49.66,14.51c.13-.09.23-.28.44-.19Z" transform="translate(-0.1 -7.87)"/><path class="cls-2" d="M25.1,7.87H46.72A3.13,3.13,0,0,1,49.86,10a.62.62,0,0,1-.27.87C44.15,14.37,38.73,18,33.31,21.53q-3.93,2.58-7.85,5.18a.54.54,0,0,1-.72,0q-12.1-8-24.21-15.95a.48.48,0,0,1-.24-.66A3.1,3.1,0,0,1,3,7.89c.22,0,.45,0,.68,0Z" transform="translate(-0.1 -7.87)"/><path class="cls-2" d="M25.1,42.25H3.43A3.1,3.1,0,0,1,.27,39.93a.38.38,0,0,1,.2-.5q9.54-6,19.06-12.06a.45.45,0,0,1,.6,0c1.28.86,2.58,1.69,3.86,2.56a1.82,1.82,0,0,0,2.21,0c1.27-.87,2.57-1.7,3.85-2.56a.5.5,0,0,1,.64,0q9.48,6,19,12a.46.46,0,0,1,.23.62,3.1,3.1,0,0,1-2.69,2.22c-.22,0-.45,0-.68,0Z" transform="translate(-0.1 -7.87)"/></svg>