<svg id="Capa_1" data-name="Capa 1" xmlns="http://www.w3.org/2000/svg" viewBox="0 0 722.92 735.98"><defs><style>.cls-1{fill:#1c2746;}</style></defs><path class="cls-1" d="M221.62,30.32c105.62-58.72,239.83-29.89,312,67s61.39,233.59-25,318c4.1-15.39,37.18-148.92-53-266C369,36.85,238.89,30.82,221.62,30.32Z" transform="translate(0 0)"/><path class="cls-1" d="M0,320.89C1.89,200.06,93.9,98.19,213.88,84.06s233,63.49,263,180.5C465.62,253.32,366.44,158,220,177.61,79.27,196.49,9.06,306.19,0,320.89Z" transform="translate(0 0)"/><path class="cls-1" d="M137.56,657C34,594.8-8,464.12,39.9,353.22s171.77-169.78,288-137c-15.35,4.1-147.57,42.1-204,178.64C69.67,526.06,129.38,641.81,137.56,657Z" transform="translate(0 0)"/><path class="cls-1" d="M502.33,705C397,764.32,262.68,736.23,190,639.76s-62.72-233.24,23.18-318.14c-4,15.42-36.33,149.14,54.49,265.7C354.93,699.32,485.06,704.57,502.33,705Z" transform="translate(0 0)"/><path class="cls-1" d="M722.92,410.84c-.1,120.85-90.6,224.06-210.36,240S278.62,590.77,246.92,474.22c11.45,11.07,112,105,258.17,83.14C645.5,536.4,714.08,425.68,722.92,410.84Z" transform="translate(0 0)"/><path class="cls-1" d="M580.48,78.81c104.08,61.42,147.09,191.77,100,303S510,552.93,393.48,521.1c15.35-4.25,147.27-43.25,202.65-180.27C649.38,209.24,588.78,94,580.48,78.81Z" transform="translate(0 0)"/></svg>