<svg xmlns="http://www.w3.org/2000/svg" viewBox="0 0 1033.39 238.27"><defs><style>.cls-1,.cls-2{fill:#369;}.cls-1{fill-rule:evenodd;}.cls-3{fill:#9c3;}.cls-4{fill:none;stroke:#9c3;stroke-miterlimit:10;}</style></defs><g id="Capa_1" data-name="Capa 1"><path class="cls-1" d="M23.57,251.64C20.35,237.61,26,135.29,132,141.79c-16.24-13.46-33.18-16-53.87-15.76C17.85,134.68-14.38,201.76,23.57,251.64Z" transform="translate(-7.22 -75.67)"/><path class="cls-1" d="M28,137.72c10.65-9.69,102.56-55,149,40.49,3.75-20.77-2.38-36.75-12.74-54.67C127,75.29,52.77,80.17,28,137.72Z" transform="translate(-7.22 -75.67)"/><path class="cls-1" d="M120.5,77.75c14.1,2.91,104.82,50.57,54.91,144.25,19-9.18,28.31-23.54,36.71-42.46C229.27,121.12,181.63,64,120.5,77.75Z" transform="translate(-7.22 -75.67)"/><path class="cls-1" d="M231.08,136.74c3.15,14-3,116.34-108.89,109.39,16.19,13.54,33.11,16.12,53.81,16C236.3,253.72,268.81,186.79,231.08,136.74Z" transform="translate(-7.22 -75.67)"/><path class="cls-1" d="M232.27,252.81c-10.5,9.84-101.76,56.46-149.51-38.35-3.45,20.82,2.91,36.72,13.52,54.48C134.11,316.65,208.29,310.71,232.27,252.81Z" transform="translate(-7.22 -75.67)"/><path class="cls-1" d="M126.7,313.74c-13.48-5-95.78-66.1-32-151-20.19,6.16-31.61,18.91-42.82,36.31C25.9,254.14,64.17,318,126.7,313.74Z" transform="translate(-7.22 -75.67)"/><path class="cls-2" d="M271.61,223.57V150.72h72.84V163h-53v16.15h49.32v12.28H291.45V211.3h54.88v12.27Z" transform="translate(-7.22 -75.67)"/><path class="cls-2" d="M426,196.78l19.24,4.53A32.51,32.51,0,0,1,430.53,219q-10.29,5.79-26.1,5.79-19.57,0-32.17-9.91t-12.6-27.11q0-18.19,12.67-28.25t33.3-10.07q18,0,29.29,7.91A28.07,28.07,0,0,1,445,170.79l-19.64,3.48a15.47,15.47,0,0,0-7.27-8.94,25.83,25.83,0,0,0-13.43-3.28q-10.94,0-17.73,5.81t-6.8,18.84q0,13.81,6.7,19.68t17.43,5.86a24.25,24.25,0,0,0,13.6-3.73Q423.53,204.79,426,196.78Z" transform="translate(-7.22 -75.67)"/><path class="cls-2" d="M458.24,187.59q0-11.13,4.49-18.69a35.74,35.74,0,0,1,9.14-10,40.51,40.51,0,0,1,12.7-6.56,70.49,70.49,0,0,1,21.18-2.89q21.71,0,34.74,10t13,27.78q0,17.64-12.93,27.61t-34.58,10q-21.9,0-34.84-9.91T458.24,187.59Zm20.43-.5q0,12.38,7.71,18.76T506,212.24q11.85,0,19.46-6.34t7.61-19q0-12.51-7.41-18.68T506,162.05q-12.27,0-19.77,6.23T478.67,187.09Z" transform="translate(-7.22 -75.67)"/><path class="cls-2" d="M591.71,223.57l-26.07-72.85H579l14.94,47.75q2.42,7.51,4.16,14.91,3.75-11.67,4.42-13.46l18.7-49.2h15.68L651,187.59a153.63,153.63,0,0,1,7.64,25.79q1.88-6.9,4.89-15.85l15.41-46.81H692L665,223.57H652.49l-20.71-55.51q-2.61-7-3.08-8.55-1.55,5-2.88,8.55L605,223.57Z" transform="translate(-7.22 -75.67)"/><path class="cls-2" d="M688.21,223.57l37.72-72.85h14l40.2,72.85H765.33l-11.45-22.06H712.8L702,223.57Zm28.34-29.92h33.3L739.6,173.48q-4.68-9.19-7-15.11a74.92,74.92,0,0,1-5.29,13.91Z" transform="translate(-7.22 -75.67)"/><path class="cls-2" d="M786.11,200.16l12.26-.79a16.93,16.93,0,0,0,4.06,9q3.18,3.49,9.88,5.66a49,49,0,0,0,15.08,2.17,47.75,47.75,0,0,0,13.13-1.64q5.7-1.65,8.48-4.5a8.83,8.83,0,0,0,2.78-6.24,8.07,8.07,0,0,0-2.68-6q-2.69-2.55-8.85-4.3-3.94-1.14-17.49-3.55t-19-4.55q-7-2.73-10.49-6.78a13.63,13.63,0,0,1-3.45-9.07,15.37,15.37,0,0,1,4.22-10.31q4.23-4.8,12.33-7.28a61.3,61.3,0,0,1,18-2.49,64.56,64.56,0,0,1,19.26,2.61q8.34,2.61,12.83,7.68a18.32,18.32,0,0,1,4.83,11.48l-12.46.7a14,14,0,0,0-6.81-10.44Q836.3,158,825,158q-11.79,0-17.18,3.21t-5.4,7.72q0,3.93,3.82,6.47t19.6,5.19q15.86,2.66,21.75,4.65,8.57,2.92,12.66,7.42A15,15,0,0,1,864.31,203,16.43,16.43,0,0,1,859.82,214q-4.49,5.15-12.9,8A58.81,58.81,0,0,1,828,224.81q-13.34,0-22.35-2.88t-14.14-8.67A20.41,20.41,0,0,1,786.11,200.16Z" transform="translate(-7.22 -75.67)"/><path class="cls-2" d="M907.06,223.57V159.31H874.7v-8.59h77.86v8.59h-32.5v64.26Z" transform="translate(-7.22 -75.67)"/><path class="cls-2" d="M966.16,223.57V150.72h71v8.59h-58v22.32h54.35v8.54H979.16V215h60.31v8.6Z" transform="translate(-7.22 -75.67)"/></g><g id="Capa_2" data-name="Capa 2"><path class="cls-3" d="M322,267.8V245.52h8.64l5.18,15.2,5.13-15.2h8.66V267.8H344.2V250.26l-5.67,17.54H333l-5.66-17.54V267.8Z" transform="translate(-7.22 -75.67)"/><path class="cls-3" d="M381.07,267.8h-6.28l-2.49-5.06H360.87l-2.36,5.06h-6.12l11.13-22.28h6.11ZM370.44,259l-3.93-8.26L362.65,259Z" transform="translate(-7.22 -75.67)"/><path class="cls-3" d="M384.19,267.8V245.52h5.61l11.7,14.88V245.52h5.36V267.8h-5.79l-11.52-14.53V267.8Z" transform="translate(-7.22 -75.67)"/><path class="cls-3" d="M413,267.8V245.52h21.19v3.77H418.73v4.94h14.35V258H418.73v6.07h16v3.75Z" transform="translate(-7.22 -75.67)"/><path class="cls-3" d="M449.91,245.52h5.75v14.1a11.31,11.31,0,0,1-.63,4.26,6.41,6.41,0,0,1-3,3.12,12.26,12.26,0,0,1-5.81,1.18c-2.82,0-5-.61-6.51-1.85a6.59,6.59,0,0,1-2.3-5.42l5.44-.48a4.75,4.75,0,0,0,.72,2.7,3.38,3.38,0,0,0,2.85,1.2,3.64,3.64,0,0,0,2.73-.85c.53-.58.8-1.77.8-3.57Z" transform="translate(-7.22 -75.67)"/><path class="cls-3" d="M460.63,256.8a11.5,11.5,0,0,1,1.3-5.72,10.89,10.89,0,0,1,2.66-3.05,11.42,11.42,0,0,1,3.7-2,19.57,19.57,0,0,1,6.16-.88q6.32,0,10.11,3.05a11.39,11.39,0,0,1,0,16.94q-3.76,3-10.06,3.05t-10.14-3A10.14,10.14,0,0,1,460.63,256.8Zm5.94-.16a7.18,7.18,0,0,0,2.25,5.74,9.27,9.27,0,0,0,11.35,0c1.48-1.3,2.21-3.23,2.21-5.82s-.71-4.46-2.15-5.71a9.61,9.61,0,0,0-11.47,0Q466.57,252.8,466.57,256.64Z" transform="translate(-7.22 -75.67)"/><path class="cls-3" d="M503.77,267.8V245.52h5.77V267.8Z" transform="translate(-7.22 -75.67)"/><path class="cls-3" d="M515.1,267.8V245.52h5.61l11.7,14.88V245.52h5.36V267.8H532l-11.52-14.53V267.8Z" transform="translate(-7.22 -75.67)"/><path class="cls-3" d="M550.3,267.8V249.29h-8.48v-3.77h22.71v3.77h-8.46V267.8Z" transform="translate(-7.22 -75.67)"/><path class="cls-3" d="M568.26,267.8V245.52h21.19v3.77H574v4.94h14.35V258H574v6.07h16v3.75Z" transform="translate(-7.22 -75.67)"/><path class="cls-3" d="M608.18,259.61v-3.76h12.44v8.88a17.23,17.23,0,0,1-5.25,2.41,24.13,24.13,0,0,1-7,1,19.24,19.24,0,0,1-7.82-1.47,10.72,10.72,0,0,1-5-4.19,11.12,11.12,0,0,1-1.68-5.94,10.64,10.64,0,0,1,1.87-6.18,11.72,11.72,0,0,1,5.48-4.15,18.43,18.43,0,0,1,6.85-1.11q5.31,0,8.31,1.74a7.91,7.91,0,0,1,3.85,4.81l-5.73.83a4.91,4.91,0,0,0-2.27-2.59,8.34,8.34,0,0,0-4.16-1,9.11,9.11,0,0,0-6,1.87,6.83,6.83,0,0,0-2.23,5.55q0,4,2.26,6a8.67,8.67,0,0,0,5.93,2,12.4,12.4,0,0,0,3.63-.55,13.57,13.57,0,0,0,3.13-1.35v-2.82Z" transform="translate(-7.22 -75.67)"/><path class="cls-3" d="M626,267.8V245.52h12.15a26.3,26.3,0,0,1,6.65.6,6.47,6.47,0,0,1,3.33,2.13,5.45,5.45,0,0,1,1.25,3.51,5.25,5.25,0,0,1-1.9,4.15,10.32,10.32,0,0,1-5.65,2.06,13.16,13.16,0,0,1,3.09,1.87,26.35,26.35,0,0,1,3.29,3.61l3.49,4.35h-6.91L640.58,263a32.51,32.51,0,0,0-3-3.27,4.51,4.51,0,0,0-1.73-.93,12,12,0,0,0-2.91-.25h-1.17v9.3Zm5.77-12.86H636a28.56,28.56,0,0,0,5.19-.27,3.1,3.1,0,0,0,1.61-.94,2.48,2.48,0,0,0,.59-1.68,2.32,2.32,0,0,0-.77-1.81,3.93,3.93,0,0,0-2.17-.88c-.47-.05-1.87-.07-4.21-.07h-4.51Z" transform="translate(-7.22 -75.67)"/><path class="cls-3" d="M680.55,267.8h-6.28l-2.5-5.06H660.35L658,267.8h-6.12L663,245.52h6.1ZM669.92,259,666,250.72,662.12,259Z" transform="translate(-7.22 -75.67)"/><path class="cls-3" d="M683.76,267.8V245.7h5.77v18.35h14.35v3.75Z" transform="translate(-7.22 -75.67)"/><path class="cls-3" d="M718.35,245.52h10.54a26.48,26.48,0,0,1,5.44.42,10.24,10.24,0,0,1,4.31,2.06,9.44,9.44,0,0,1,2.73,3.61,13.13,13.13,0,0,1,.94,5.26,11.73,11.73,0,0,1-.88,4.74,9.87,9.87,0,0,1-3.06,3.94,11.18,11.18,0,0,1-4.06,1.78,22.3,22.3,0,0,1-5.1.47H718.35Zm5.77,3.77v14.76h4.31a19.15,19.15,0,0,0,3.49-.22,6.08,6.08,0,0,0,2.33-.92,4.69,4.69,0,0,0,1.51-2.15,11.56,11.56,0,0,0,.58-4.09,10.54,10.54,0,0,0-.58-4,5.1,5.1,0,0,0-1.64-2.16,6.09,6.09,0,0,0-2.67-1.05,34,34,0,0,0-4.74-.21Z" transform="translate(-7.22 -75.67)"/><path class="cls-3" d="M747.2,267.8V245.52h21.19v3.77H753v4.94h14.35V258H753v6.07h16v3.75Z" transform="translate(-7.22 -75.67)"/><path class="cls-3" d="M784.94,267.8V245.52h12.15a26.3,26.3,0,0,1,6.65.6,6.47,6.47,0,0,1,3.33,2.13,5.45,5.45,0,0,1,1.25,3.51,5.24,5.24,0,0,1-1.89,4.15,10.38,10.38,0,0,1-5.66,2.06,13.16,13.16,0,0,1,3.09,1.87,26.35,26.35,0,0,1,3.29,3.61l3.49,4.35h-6.91L799.56,263a32.51,32.51,0,0,0-3-3.27,4.51,4.51,0,0,0-1.73-.93,12,12,0,0,0-2.91-.25h-1.17v9.3Zm5.77-12.86H795a28.56,28.56,0,0,0,5.19-.27,3.18,3.18,0,0,0,1.62-.94,2.52,2.52,0,0,0,.58-1.68,2.32,2.32,0,0,0-.77-1.81,3.93,3.93,0,0,0-2.17-.88c-.47-.05-1.87-.07-4.21-.07h-4.51Z" transform="translate(-7.22 -75.67)"/><path class="cls-3" d="M813.75,267.8V245.52h21.19v3.77H819.52v4.94h14.35V258H819.52v6.07h16v3.75Z" transform="translate(-7.22 -75.67)"/><path class="cls-3" d="M838.92,260.55l5.62-.43a5.07,5.07,0,0,0,2.05,3.24,7.47,7.47,0,0,0,4.19,1,7.84,7.84,0,0,0,4.2-.92,2.61,2.61,0,0,0,1.41-2.15,1.8,1.8,0,0,0-.59-1.35,5.23,5.23,0,0,0-2.08-1c-.68-.18-2.22-.5-4.62-1a18.12,18.12,0,0,1-6.51-2.2,5.36,5.36,0,0,1-2.63-4.49,4.9,4.9,0,0,1,1.23-3.18,7.72,7.72,0,0,1,3.57-2.26,18.15,18.15,0,0,1,5.63-.77q5.37,0,8.1,1.84a6,6,0,0,1,2.85,4.91l-5.77.19a3.65,3.65,0,0,0-1.59-2.47,7.08,7.08,0,0,0-3.65-.75,8,8,0,0,0-3.94.81,1.55,1.55,0,0,0-.92,1.38,1.6,1.6,0,0,0,.86,1.35,17.72,17.72,0,0,0,5.3,1.49,33.11,33.11,0,0,1,6.23,1.61,7.55,7.55,0,0,1,3.16,2.26,5.73,5.73,0,0,1-.22,7.14,8.07,8.07,0,0,1-3.86,2.48,20.43,20.43,0,0,1-6.22.82c-3.62,0-6.39-.66-8.33-2A8,8,0,0,1,838.92,260.55Z" transform="translate(-7.22 -75.67)"/><path class="cls-3" d="M866.84,267.8V245.52h5.77V267.8Z" transform="translate(-7.22 -75.67)"/><path class="cls-3" d="M878.09,245.52h10.54a26.48,26.48,0,0,1,5.44.42,10.24,10.24,0,0,1,4.31,2.06,9.44,9.44,0,0,1,2.73,3.61,13.13,13.13,0,0,1,.94,5.26,11.73,11.73,0,0,1-.88,4.74,9.87,9.87,0,0,1-3.06,3.94,11.18,11.18,0,0,1-4.06,1.78,22.3,22.3,0,0,1-5.1.47H878.09Zm5.77,3.77v14.76h4.31a19.15,19.15,0,0,0,3.49-.22,6.08,6.08,0,0,0,2.33-.92,4.69,4.69,0,0,0,1.51-2.15,11.56,11.56,0,0,0,.58-4.09,10.54,10.54,0,0,0-.58-4,5.1,5.1,0,0,0-1.64-2.16,6.09,6.09,0,0,0-2.67-1.05,34,34,0,0,0-4.74-.21Z" transform="translate(-7.22 -75.67)"/><path class="cls-3" d="M906.9,245.52h5.77v12.07a20,20,0,0,0,.21,3.72,3.68,3.68,0,0,0,1.77,2.2,7.48,7.48,0,0,0,3.81.82,7.05,7.05,0,0,0,3.7-.78,3,3,0,0,0,1.5-1.92,19.42,19.42,0,0,0,.26-3.79V245.52h5.77v11.7a23.62,23.62,0,0,1-.47,5.67,5.91,5.91,0,0,1-1.72,2.8,9,9,0,0,1-3.37,1.81,18.36,18.36,0,0,1-5.49.68,20,20,0,0,1-6.21-.74,9.17,9.17,0,0,1-3.35-1.91,5.78,5.78,0,0,1-1.61-2.47,21.14,21.14,0,0,1-.57-5.66Z" transform="translate(-7.22 -75.67)"/><path class="cls-3" d="M934.6,256.8a11.49,11.49,0,0,1,1.31-5.72,10.89,10.89,0,0,1,2.66-3.05,11.27,11.27,0,0,1,3.69-2,19.61,19.61,0,0,1,6.16-.88q6.32,0,10.11,3.05a11.39,11.39,0,0,1,0,16.94q-3.76,3-10.06,3.05t-10.13-3A10.14,10.14,0,0,1,934.6,256.8Zm5.95-.16a7.21,7.21,0,0,0,2.24,5.74,9.29,9.29,0,0,0,11.36,0,7.35,7.35,0,0,0,2.21-5.82c0-2.55-.72-4.46-2.16-5.71a8.34,8.34,0,0,0-5.72-1.89,8.44,8.44,0,0,0-5.75,1.91Q940.56,252.8,940.55,256.64Z" transform="translate(-7.22 -75.67)"/><path class="cls-3" d="M965.37,260.55l5.61-.43a5,5,0,0,0,2.06,3.24,7.41,7.41,0,0,0,4.18,1,7.79,7.79,0,0,0,4.2-.92,2.61,2.61,0,0,0,1.41-2.15,1.8,1.8,0,0,0-.59-1.35,5.23,5.23,0,0,0-2.08-1c-.67-.18-2.21-.5-4.62-1a18.19,18.19,0,0,1-6.51-2.2,5.38,5.38,0,0,1-2.63-4.49,4.86,4.86,0,0,1,1.24-3.18,7.64,7.64,0,0,1,3.56-2.26,18.19,18.19,0,0,1,5.63-.77q5.38,0,8.1,1.84a6,6,0,0,1,2.85,4.91l-5.77.19a3.62,3.62,0,0,0-1.59-2.47,7.08,7.08,0,0,0-3.65-.75,8,8,0,0,0-3.94.81,1.54,1.54,0,0,0-.91,1.38,1.59,1.59,0,0,0,.85,1.35,17.71,17.71,0,0,0,5.31,1.49,33.18,33.18,0,0,1,6.22,1.61,7.55,7.55,0,0,1,3.16,2.26,5.73,5.73,0,0,1-.22,7.14,8.07,8.07,0,0,1-3.86,2.48,20.43,20.43,0,0,1-6.22.82c-3.61,0-6.39-.66-8.33-2A7.94,7.94,0,0,1,965.37,260.55Z" transform="translate(-7.22 -75.67)"/><line class="cls-4" x1="307.54" y1="184.64" x2="264.39" y2="184.64"/><line class="cls-4" x1="1033.39" y1="184.64" x2="990.23" y2="184.64"/></g></svg>