<svg xmlns="http://www.w3.org/2000/svg" xmlns:xlink="http://www.w3.org/1999/xlink" viewBox="0 0 912.38 273.85"><defs><clipPath id="clip-path"><path d="M417.5,307.36V285.17h4.42l5.25,15.71c.48,1.46.84,2.56,1.06,3.29.25-.81.65-2,1.18-3.56l5.31-15.44h3.95v22.19h-2.83V288.79l-6.44,18.57h-2.65l-6.42-18.89v18.89Zm23.48,0,8.52-22.19h3.16l9.08,22.19H458.4l-2.59-6.72h-9.28l-2.44,6.72Zm6.4-9.11h7.52l-2.32-6.15c-.7-1.87-1.23-3.4-1.57-4.6a27.43,27.43,0,0,1-1.2,4.24Zm16.68,9.11V285.17h3l11.66,17.42V285.17h2.81v22.19h-3l-11.66-17.44v17.44Zm22.48,0V285.17h16v2.62H489.47v6.79h12.28v2.61H489.47v7.55H503.1v2.62Zm19.11-6.3,2.65-.36a5.65,5.65,0,0,0,1,3.48,3,3,0,0,0,2.34.94,3.47,3.47,0,0,0,1.91-.51,2.61,2.61,0,0,0,1.11-1.38,9.23,9.23,0,0,0,.3-2.77V285.17h2.93v15.12a11,11,0,0,1-.67,4.32,4.83,4.83,0,0,1-2.13,2.33,7.09,7.09,0,0,1-3.43.8,5.77,5.77,0,0,1-4.47-1.68A6.92,6.92,0,0,1,505.65,301.06Zm16.11-4.51q0-5.52,3-8.65a10.08,10.08,0,0,1,7.66-3.12,10.74,10.74,0,0,1,5.54,1.46,9.69,9.69,0,0,1,3.76,4.1,13.3,13.3,0,0,1,1.29,6,13,13,0,0,1-1.36,6,9.32,9.32,0,0,1-3.86,4,11.08,11.08,0,0,1-5.39,1.37,10.47,10.47,0,0,1-5.6-1.52,9.76,9.76,0,0,1-3.74-4.13A12.46,12.46,0,0,1,521.76,296.55Zm3,.05a8.93,8.93,0,0,0,2.15,6.32,7.54,7.54,0,0,0,10.87,0,9.41,9.41,0,0,0,2.14-6.61,11.37,11.37,0,0,0-.91-4.73,7,7,0,0,0-2.68-3.13,7.22,7.22,0,0,0-4-1.12,7.52,7.52,0,0,0-5.37,2.15C525.54,290.87,524.79,293.26,524.79,296.6Zm31.09,10.76V285.17h2.93v22.19Zm8.08,0V285.17h3l11.66,17.42V285.17h2.81v22.19h-3l-11.65-17.44v17.44Zm28.06,0V287.79h-7.31v-2.62H602.3v2.62H595v19.57Zm13.36,0V285.17h16v2.62H608.31v6.79h12.28v2.61H608.31v7.55h13.62v2.62Zm31-8.7v-2.61h9.39v8.23a16.61,16.61,0,0,1-4.46,2.6,13.24,13.24,0,0,1-4.72.87,12.63,12.63,0,0,1-5.94-1.4,9.3,9.3,0,0,1-4-4,12.74,12.74,0,0,1-1.36-5.92,13.81,13.81,0,0,1,1.35-6.05,9.09,9.09,0,0,1,3.9-4.17,12.21,12.21,0,0,1,5.86-1.36,11.58,11.58,0,0,1,4.35.78,7.2,7.2,0,0,1,3,2.17,9.53,9.53,0,0,1,1.68,3.64l-2.65.72a8,8,0,0,0-1.24-2.66,5,5,0,0,0-2.12-1.55,7.72,7.72,0,0,0-3-.59,9,9,0,0,0-3.49.62,6.54,6.54,0,0,0-2.37,1.61,8,8,0,0,0-1.4,2.19,11.74,11.74,0,0,0-.84,4.47,10.82,10.82,0,0,0,1,5,6.52,6.52,0,0,0,3,3,9.17,9.17,0,0,0,4.15,1,10.82,10.82,0,0,0,6.48-2.3v-4.13Zm13.77,8.7V285.17H660a13,13,0,0,1,4.51.6,5,5,0,0,1,2.47,2.11,6.33,6.33,0,0,1,.92,3.34,5.59,5.59,0,0,1-1.53,4,7.71,7.71,0,0,1-4.72,2.05,7.79,7.79,0,0,1,1.77,1.11,15.39,15.39,0,0,1,2.44,2.95l3.86,6H666l-2.93-4.62c-.86-1.33-1.57-2.35-2.12-3.05a6.88,6.88,0,0,0-1.49-1.49,4.5,4.5,0,0,0-1.34-.59,9.11,9.11,0,0,0-1.64-.1h-3.4v9.85Zm2.94-12.4h6.31a9.72,9.72,0,0,0,3.15-.41,3.33,3.33,0,0,0,1.72-1.34,3.54,3.54,0,0,0,.59-2,3.32,3.32,0,0,0-1.14-2.59,5.39,5.39,0,0,0-3.61-1h-7Zm17,12.4,8.53-22.19h3.16l9.08,22.19h-3.34l-2.59-6.72h-9.28l-2.44,6.72Zm6.41-9.11H684l-2.32-6.15c-.7-1.87-1.23-3.4-1.57-4.6a27.43,27.43,0,0,1-1.2,4.24Zm16.59,9.11V285.17H696v19.57h10.93v2.62Zm24.82,0V285.17h7.65a18.68,18.68,0,0,1,4,.32,7.46,7.46,0,0,1,3.25,1.59,9,9,0,0,1,2.63,3.79,14.9,14.9,0,0,1,.87,5.27,15.59,15.59,0,0,1-.59,4.48,11,11,0,0,1-1.52,3.24,8,8,0,0,1-2,2,8.11,8.11,0,0,1-2.65,1.11,15.18,15.18,0,0,1-3.56.38Zm2.94-2.62h4.74a11.23,11.23,0,0,0,3.44-.41,4.82,4.82,0,0,0,2-1.15,6.94,6.94,0,0,0,1.63-2.8,13.76,13.76,0,0,0,.58-4.28,10.33,10.33,0,0,0-1.14-5.35,5.77,5.77,0,0,0-2.78-2.51,11.58,11.58,0,0,0-3.8-.45h-4.66Zm19.51,2.62V285.17h16v2.62h-13.1v6.79h12.27v2.61H743.26v7.55h13.62v2.62Zm29.27,0V285.17h9.84a13,13,0,0,1,4.51.6,5,5,0,0,1,2.47,2.11,6.24,6.24,0,0,1,.92,3.34,5.59,5.59,0,0,1-1.53,4,7.68,7.68,0,0,1-4.72,2.05,7.79,7.79,0,0,1,1.77,1.11,15.39,15.39,0,0,1,2.44,2.95l3.86,6h-3.69l-2.94-4.62c-.86-1.33-1.56-2.35-2.12-3.05a6.46,6.46,0,0,0-1.49-1.49,4.5,4.5,0,0,0-1.34-.59,9,9,0,0,0-1.63-.1h-3.41v9.85Zm2.94-12.4h6.31a9.72,9.72,0,0,0,3.15-.41,3.35,3.35,0,0,0,1.73-1.34,3.62,3.62,0,0,0,.59-2,3.33,3.33,0,0,0-1.15-2.59,5.37,5.37,0,0,0-3.61-1h-7ZM792,307.36V285.17h16v2.62H794.93v6.79h12.28v2.61H794.93v7.55h13.62v2.62Zm19.61-7.13,2.77-.24a6.08,6.08,0,0,0,.92,2.73,5,5,0,0,0,2.23,1.73,8.6,8.6,0,0,0,3.41.65,8.16,8.16,0,0,0,3-.49,4.12,4.12,0,0,0,1.92-1.38,3.16,3.16,0,0,0,.63-1.89,2.92,2.92,0,0,0-.61-1.83,4.43,4.43,0,0,0-2-1.31,39.43,39.43,0,0,0-4-1.08,19.78,19.78,0,0,1-4.28-1.39,6,6,0,0,1-2.37-2.06,5,5,0,0,1-.78-2.76,5.67,5.67,0,0,1,.95-3.14,5.88,5.88,0,0,1,2.79-2.22,10.47,10.47,0,0,1,4.07-.76,11.07,11.07,0,0,1,4.35.8,6.26,6.26,0,0,1,2.9,2.33,6.7,6.7,0,0,1,1.09,3.5l-2.81.21a4.61,4.61,0,0,0-1.54-3.18,6,6,0,0,0-3.87-1.07,6.21,6.21,0,0,0-3.88,1,2.93,2.93,0,0,0-1.22,2.35,2.55,2.55,0,0,0,.86,2c.57.51,2,1,4.43,1.58a29.71,29.71,0,0,1,4.91,1.41,6.7,6.7,0,0,1,2.86,2.27,5.46,5.46,0,0,1,.93,3.15,6,6,0,0,1-1,3.34,6.65,6.65,0,0,1-2.91,2.44,10.17,10.17,0,0,1-4.28.87,12.7,12.7,0,0,1-5.05-.88,7.09,7.09,0,0,1-3.19-2.64A7.53,7.53,0,0,1,811.61,300.23Zm22.18,7.13V285.17h2.93v22.19Zm8.11,0V285.17h7.64a18.72,18.72,0,0,1,4,.32,7.46,7.46,0,0,1,3.25,1.59,9,9,0,0,1,2.63,3.79,14.9,14.9,0,0,1,.87,5.27,15.59,15.59,0,0,1-.59,4.48,11,11,0,0,1-1.52,3.24,8,8,0,0,1-2,2,8.11,8.11,0,0,1-2.65,1.11,15.18,15.18,0,0,1-3.56.38Zm2.94-2.62h4.74a11.23,11.23,0,0,0,3.44-.41,4.82,4.82,0,0,0,2-1.15,6.94,6.94,0,0,0,1.63-2.8,13.76,13.76,0,0,0,.58-4.28,10.33,10.33,0,0,0-1.14-5.35,5.81,5.81,0,0,0-2.78-2.51,11.58,11.58,0,0,0-3.8-.45h-4.66Zm34-19.57h2.94V298a15.25,15.25,0,0,1-.76,5.31,6.49,6.49,0,0,1-2.73,3.2,9.63,9.63,0,0,1-5.19,1.24,10.6,10.6,0,0,1-5.1-1.08,6.13,6.13,0,0,1-2.83-3.11,14.88,14.88,0,0,1-.85-5.56V285.17h2.94V298a12.5,12.5,0,0,0,.54,4.27,4.12,4.12,0,0,0,1.84,2.11,6.48,6.48,0,0,0,3.21.74q3.23,0,4.61-1.47t1.38-5.65Zm6.93,11.38q0-5.52,3-8.65a10.1,10.1,0,0,1,7.66-3.12,10.71,10.71,0,0,1,5.54,1.46,9.62,9.62,0,0,1,3.76,4.1,13.3,13.3,0,0,1,1.29,6,13,13,0,0,1-1.36,6,9.26,9.26,0,0,1-3.86,4,11,11,0,0,1-5.39,1.37,10.5,10.5,0,0,1-5.6-1.52,9.76,9.76,0,0,1-3.74-4.13A12.6,12.6,0,0,1,885.78,296.55Zm3,.05a8.89,8.89,0,0,0,2.16,6.32,7.53,7.53,0,0,0,10.86,0,9.41,9.41,0,0,0,2.15-6.61,11.37,11.37,0,0,0-.92-4.73,7,7,0,0,0-2.68-3.13,7.18,7.18,0,0,0-4-1.12,7.49,7.49,0,0,0-5.36,2.15C889.56,290.87,888.81,293.26,888.81,296.6Zm21,3.63,2.77-.24a6.2,6.2,0,0,0,.91,2.73,5,5,0,0,0,2.24,1.73,8.59,8.59,0,0,0,3.4.65,8.26,8.26,0,0,0,3-.49,4.12,4.12,0,0,0,1.92-1.38,3.21,3.21,0,0,0,.62-1.89,2.92,2.92,0,0,0-.6-1.83,4.49,4.49,0,0,0-2-1.31,40.27,40.27,0,0,0-3.95-1.08,19.58,19.58,0,0,1-4.28-1.39,6,6,0,0,1-2.37-2.06,5,5,0,0,1-.78-2.76,5.67,5.67,0,0,1,1-3.14,5.84,5.84,0,0,1,2.79-2.22,10.43,10.43,0,0,1,4.07-.76,11.14,11.14,0,0,1,4.35.8,6.26,6.26,0,0,1,2.9,2.33,6.79,6.79,0,0,1,1.09,3.5l-2.82.21a4.56,4.56,0,0,0-1.53-3.18,6.05,6.05,0,0,0-3.87-1.07,6.19,6.19,0,0,0-3.88,1,2.9,2.9,0,0,0-1.22,2.35,2.51,2.51,0,0,0,.86,2c.57.51,2,1,4.43,1.58a30,30,0,0,1,4.91,1.41,6.7,6.7,0,0,1,2.86,2.27,5.45,5.45,0,0,1,.92,3.15,6,6,0,0,1-1,3.34,6.76,6.76,0,0,1-2.91,2.44,10.2,10.2,0,0,1-4.28.87,12.7,12.7,0,0,1-5-.88,7,7,0,0,1-3.19-2.64A7.53,7.53,0,0,1,909.79,300.23Z" style="fill:#308c55"/></clipPath><clipPath id="clip-path-2"><line x1="404" y1="298.5" x2="373.5" y2="298.5" style="fill:#1c2746;stroke:#308c55;stroke-miterlimit:10;clip-path:url(#clip-path)"/></clipPath><clipPath id="clip-path-3" transform="translate(-58.62 -73.07)"><line x1="971" y1="298.5" x2="940.5" y2="298.5" style="fill:#1c2746;stroke:#308c55;stroke-miterlimit:10;clip-path:url(#clip-path-2)"/></clipPath></defs><title>ECOWASTE</title><g id="LOGO"><path d="M141.09,84.35A90.14,90.14,0,0,1,247.88,227.61c1.53-5.72,13.84-55.41-19.72-99C195.92,86.78,147.51,84.54,141.09,84.35Z" transform="translate(-58.62 -73.07)" style="fill:#1c2746"/><path d="M58.62,192.48a90.14,90.14,0,0,1,177.45-21c-4.2-4.18-41.09-39.66-95.59-32.35C88.12,146.19,62,187,58.62,192.48Z" transform="translate(-58.62 -73.07)" style="fill:#1c2746"/><path d="M109.81,317.55a90.14,90.14,0,0,1,70.84-164c-5.73,1.54-54.93,15.67-75.93,66.49C84.55,268.82,106.76,311.89,109.81,317.55Z" transform="translate(-58.62 -73.07)" style="fill:#1c2746"/><path d="M245.54,335.4A90.14,90.14,0,0,1,137.93,192.75c-1.49,5.73-13.52,55.49,20.29,98.86C190.69,333.28,239.12,335.25,245.54,335.4Z" transform="translate(-58.62 -73.07)" style="fill:#1c2746"/><path d="M327.62,226A90.14,90.14,0,0,1,150.5,249.53c4.26,4.12,41.68,39,96.07,30.94C298.82,272.67,324.33,231.47,327.62,226Z" transform="translate(-58.62 -73.07)" style="fill:#1c2746"/><path d="M274.62,102.4A90.14,90.14,0,0,1,205.06,267c5.71-1.58,54.8-16.1,75.41-67.08C300.26,150.93,277.71,108,274.62,102.4Z" transform="translate(-58.62 -73.07)" style="fill:#1c2746"/></g><g id="ECOWASTE"><path d="M373.41,243.51V151h55.72V165.7h-38v23h36.25v14.38H391.11v25.7h38v14.72Z" transform="translate(-58.62 -73.07)" style="fill:#1c2746"/><path d="M503.94,239.9A69.8,69.8,0,0,1,492,243.58a58.15,58.15,0,0,1-12,1.21,49.21,49.21,0,0,1-17.67-2.94,33.22,33.22,0,0,1-12.95-8.74,38.16,38.16,0,0,1-8-14.41,66.25,66.25,0,0,1-2.73-20,66.86,66.86,0,0,1,3-20.78,43.36,43.36,0,0,1,8.5-15.37A36.15,36.15,0,0,1,463.55,153a45.55,45.55,0,0,1,17.73-3.3c2.13,0,4.12.05,6,.14s3.69.28,5.48.54,3.61.6,5.46,1,3.75,1,5.73,1.63v17.28a54.72,54.72,0,0,0-11.47-4,46.53,46.53,0,0,0-9.91-1.2,24.67,24.67,0,0,0-11.26,2.37,20.71,20.71,0,0,0-7.68,6.65,29.61,29.61,0,0,0-4.43,10.2,61.68,61.68,0,0,0,0,26.41,27.78,27.78,0,0,0,4.49,10,19.75,19.75,0,0,0,7.79,6.26,27,27,0,0,0,11.26,2.16,30.17,30.17,0,0,0,5.06-.46q2.73-.47,5.52-1.2t5.53-1.77c1.81-.69,3.5-1.38,5.06-2.09Z" transform="translate(-58.62 -73.07)" style="fill:#1c2746"/><path d="M582.43,196.86a71.26,71.26,0,0,1-2.94,21.73,42.16,42.16,0,0,1-8.07,15,31.86,31.86,0,0,1-12,8.71,38.45,38.45,0,0,1-14.76,2.83q-18.25,0-27.47-12.14T508,197.71A71.28,71.28,0,0,1,510.89,176,41.85,41.85,0,0,1,519,161a31.91,31.91,0,0,1,12-8.71,38.54,38.54,0,0,1,14.77-2.83q18.25,0,27.47,12.11T582.43,196.86Zm-18.41.85q0-16.43-4.39-24.5t-14.44-8.07a16.52,16.52,0,0,0-8.57,2.09,16.19,16.19,0,0,0-5.84,6.12,31.33,31.33,0,0,0-3.36,10,77.12,77.12,0,0,0-1.06,13.56q0,16.42,4.42,24.49t14.41,8.07a16.78,16.78,0,0,0,8.6-2.08,16,16,0,0,0,5.84-6.13,31.75,31.75,0,0,0,3.33-10A77.08,77.08,0,0,0,564,197.71Z" transform="translate(-58.62 -73.07)" style="fill:#1c2746"/><path d="M674.23,243.51h-5.81l-22.58-68.75a37.54,37.54,0,0,1-1.91-8.6h-.29a37.24,37.24,0,0,1-2.19,8.47l-24.07,68.88h-5.81l-30.16-91.37h7.86l23.15,73.21c1,3.32,1.77,6,2.2,8.1h.28a59.46,59.46,0,0,1,2.48-8.1l25.06-73.21H646l23,73.21a72.46,72.46,0,0,1,2.2,8.1h.28a31.53,31.53,0,0,1,1.13-4.08l23.79-77.23H704Z" transform="translate(-58.62 -73.07)" style="fill:#1c2746"/><path d="M771.48,243.51l-11.61-28.42h-44l-11.61,28.42H696.5l38.31-91.37h6.65l37.88,91.37Zm-31.15-76.46a32.13,32.13,0,0,1-1.28-3.76c-.33-1.06-.68-2.12-1.06-3.19h-.28a55.43,55.43,0,0,1-2.34,6.82L718.31,209.3h39.15Z" transform="translate(-58.62 -73.07)" style="fill:#1c2746"/><path d="M786.11,240.26v-7.2a44,44,0,0,0,22.09,6.25q11.89,0,18-4.43a14.37,14.37,0,0,0,6.16-12.39q0-7-4.14-11.19t-17.95-11.37q-15.44-8.1-19.54-13.54a20.33,20.33,0,0,1-4.1-12.59q0-9.68,8.35-16.44t22.3-6.75a62.27,62.27,0,0,1,18.13,2.74V160a49.89,49.89,0,0,0-19.05-3.64q-10.33,0-16.39,4.72a14.57,14.57,0,0,0-6,12q0,7,4.14,11.15T816,195.47q14.22,7.26,18.94,12.9a19.69,19.69,0,0,1,4.7,13,21.13,21.13,0,0,1-8.1,17.14q-8.12,6.63-22.91,6.63a58.28,58.28,0,0,1-12.07-1.47A41.93,41.93,0,0,1,786.11,240.26Z" transform="translate(-58.62 -73.07)" style="fill:#1c2746"/><path d="M881.66,157.94v85.57h-6.94V157.94H845.41v-5.8H911v5.8Z" transform="translate(-58.62 -73.07)" style="fill:#1c2746"/><path d="M921,243.51V152.14h47.44v5.8H928v36.64h37.52v5.73H928v37.47h42.76v5.73Z" transform="translate(-58.62 -73.07)" style="fill:#1c2746"/></g><g id="MANEJO_INTEGRAL" data-name="MANEJO INTEGRAL"><path d="M417.5,307.36V285.17h4.42l5.25,15.71c.48,1.46.84,2.56,1.06,3.29.25-.81.65-2,1.18-3.56l5.31-15.44h3.95v22.19h-2.83V288.79l-6.44,18.57h-2.65l-6.42-18.89v18.89Zm23.48,0,8.52-22.19h3.16l9.08,22.19H458.4l-2.59-6.72h-9.28l-2.44,6.72Zm6.4-9.11h7.52l-2.32-6.15c-.7-1.87-1.23-3.4-1.57-4.6a27.43,27.43,0,0,1-1.2,4.24Zm16.68,9.11V285.17h3l11.66,17.42V285.17h2.81v22.19h-3l-11.66-17.44v17.44Zm22.48,0V285.17h16v2.62H489.47v6.79h12.28v2.61H489.47v7.55H503.1v2.62Zm19.11-6.3,2.65-.36a5.65,5.65,0,0,0,1,3.48,3,3,0,0,0,2.34.94,3.47,3.47,0,0,0,1.91-.51,2.61,2.61,0,0,0,1.11-1.38,9.23,9.23,0,0,0,.3-2.77V285.17h2.93v15.12a11,11,0,0,1-.67,4.32,4.83,4.83,0,0,1-2.13,2.33,7.09,7.09,0,0,1-3.43.8,5.77,5.77,0,0,1-4.47-1.68A6.92,6.92,0,0,1,505.65,301.06Zm16.11-4.51q0-5.52,3-8.65a10.08,10.08,0,0,1,7.66-3.12,10.74,10.74,0,0,1,5.54,1.46,9.69,9.69,0,0,1,3.76,4.1,13.3,13.3,0,0,1,1.29,6,13,13,0,0,1-1.36,6,9.32,9.32,0,0,1-3.86,4,11.08,11.08,0,0,1-5.39,1.37,10.47,10.47,0,0,1-5.6-1.52,9.76,9.76,0,0,1-3.74-4.13A12.46,12.46,0,0,1,521.76,296.55Zm3,.05a8.93,8.93,0,0,0,2.15,6.32,7.54,7.54,0,0,0,10.87,0,9.41,9.41,0,0,0,2.14-6.61,11.37,11.37,0,0,0-.91-4.73,7,7,0,0,0-2.68-3.13,7.22,7.22,0,0,0-4-1.12,7.52,7.52,0,0,0-5.37,2.15C525.54,290.87,524.79,293.26,524.79,296.6Zm31.09,10.76V285.17h2.93v22.19Zm8.08,0V285.17h3l11.66,17.42V285.17h2.81v22.19h-3l-11.65-17.44v17.44Zm28.06,0V287.79h-7.31v-2.62H602.3v2.62H595v19.57Zm13.36,0V285.17h16v2.62H608.31v6.79h12.28v2.61H608.31v7.55h13.62v2.62Zm31-8.7v-2.61h9.39v8.23a16.61,16.61,0,0,1-4.46,2.6,13.24,13.24,0,0,1-4.72.87,12.63,12.63,0,0,1-5.94-1.4,9.3,9.3,0,0,1-4-4,12.74,12.74,0,0,1-1.36-5.92,13.81,13.81,0,0,1,1.35-6.05,9.09,9.09,0,0,1,3.9-4.17,12.21,12.21,0,0,1,5.86-1.36,11.58,11.58,0,0,1,4.35.78,7.2,7.2,0,0,1,3,2.17,9.53,9.53,0,0,1,1.68,3.64l-2.65.72a8,8,0,0,0-1.24-2.66,5,5,0,0,0-2.12-1.55,7.72,7.72,0,0,0-3-.59,9,9,0,0,0-3.49.62,6.54,6.54,0,0,0-2.37,1.61,8,8,0,0,0-1.4,2.19,11.74,11.74,0,0,0-.84,4.47,10.82,10.82,0,0,0,1,5,6.52,6.52,0,0,0,3,3,9.17,9.17,0,0,0,4.15,1,10.82,10.82,0,0,0,6.48-2.3v-4.13Zm13.77,8.7V285.17H660a13,13,0,0,1,4.51.6,5,5,0,0,1,2.47,2.11,6.33,6.33,0,0,1,.92,3.34,5.59,5.59,0,0,1-1.53,4,7.71,7.71,0,0,1-4.72,2.05,7.79,7.79,0,0,1,1.77,1.11,15.39,15.39,0,0,1,2.44,2.95l3.86,6H666l-2.93-4.62c-.86-1.33-1.57-2.35-2.12-3.05a6.88,6.88,0,0,0-1.49-1.49,4.5,4.5,0,0,0-1.34-.59,9.11,9.11,0,0,0-1.64-.1h-3.4v9.85Zm2.94-12.4h6.31a9.72,9.72,0,0,0,3.15-.41,3.33,3.33,0,0,0,1.72-1.34,3.54,3.54,0,0,0,.59-2,3.32,3.32,0,0,0-1.14-2.59,5.39,5.39,0,0,0-3.61-1h-7Zm17,12.4,8.53-22.19h3.16l9.08,22.19h-3.34l-2.59-6.72h-9.28l-2.44,6.72Zm6.41-9.11H684l-2.32-6.15c-.7-1.87-1.23-3.4-1.57-4.6a27.43,27.43,0,0,1-1.2,4.24Zm16.59,9.11V285.17H696v19.57h10.93v2.62Zm24.82,0V285.17h7.65a18.68,18.68,0,0,1,4,.32,7.46,7.46,0,0,1,3.25,1.59,9,9,0,0,1,2.63,3.79,14.9,14.9,0,0,1,.87,5.27,15.59,15.59,0,0,1-.59,4.48,11,11,0,0,1-1.52,3.24,8,8,0,0,1-2,2,8.11,8.11,0,0,1-2.65,1.11,15.18,15.18,0,0,1-3.56.38Zm2.94-2.62h4.74a11.23,11.23,0,0,0,3.44-.41,4.82,4.82,0,0,0,2-1.15,6.94,6.94,0,0,0,1.63-2.8,13.76,13.76,0,0,0,.58-4.28,10.33,10.33,0,0,0-1.14-5.35,5.77,5.77,0,0,0-2.78-2.51,11.58,11.58,0,0,0-3.8-.45h-4.66Zm19.51,2.62V285.17h16v2.62h-13.1v6.79h12.27v2.61H743.26v7.55h13.62v2.62Zm29.27,0V285.17h9.84a13,13,0,0,1,4.51.6,5,5,0,0,1,2.47,2.11,6.24,6.24,0,0,1,.92,3.34,5.59,5.59,0,0,1-1.53,4,7.68,7.68,0,0,1-4.72,2.05,7.79,7.79,0,0,1,1.77,1.11,15.39,15.39,0,0,1,2.44,2.95l3.86,6h-3.69l-2.94-4.62c-.86-1.33-1.56-2.35-2.12-3.05a6.46,6.46,0,0,0-1.49-1.49,4.5,4.5,0,0,0-1.34-.59,9,9,0,0,0-1.63-.1h-3.41v9.85Zm2.94-12.4h6.31a9.72,9.72,0,0,0,3.15-.41,3.35,3.35,0,0,0,1.73-1.34,3.62,3.62,0,0,0,.59-2,3.33,3.33,0,0,0-1.15-2.59,5.37,5.37,0,0,0-3.61-1h-7ZM792,307.36V285.17h16v2.62H794.93v6.79h12.28v2.61H794.93v7.55h13.62v2.62Zm19.61-7.13,2.77-.24a6.08,6.08,0,0,0,.92,2.73,5,5,0,0,0,2.23,1.73,8.6,8.6,0,0,0,3.41.65,8.16,8.16,0,0,0,3-.49,4.12,4.12,0,0,0,1.92-1.38,3.16,3.16,0,0,0,.63-1.89,2.92,2.92,0,0,0-.61-1.83,4.43,4.43,0,0,0-2-1.31,39.43,39.43,0,0,0-4-1.08,19.78,19.78,0,0,1-4.28-1.39,6,6,0,0,1-2.37-2.06,5,5,0,0,1-.78-2.76,5.67,5.67,0,0,1,.95-3.14,5.88,5.88,0,0,1,2.79-2.22,10.47,10.47,0,0,1,4.07-.76,11.07,11.07,0,0,1,4.35.8,6.26,6.26,0,0,1,2.9,2.33,6.7,6.7,0,0,1,1.09,3.5l-2.81.21a4.61,4.61,0,0,0-1.54-3.18,6,6,0,0,0-3.87-1.07,6.21,6.21,0,0,0-3.88,1,2.93,2.93,0,0,0-1.22,2.35,2.55,2.55,0,0,0,.86,2c.57.51,2,1,4.43,1.58a29.71,29.71,0,0,1,4.91,1.41,6.7,6.7,0,0,1,2.86,2.27,5.46,5.46,0,0,1,.93,3.15,6,6,0,0,1-1,3.34,6.65,6.65,0,0,1-2.91,2.44,10.17,10.17,0,0,1-4.28.87,12.7,12.7,0,0,1-5.05-.88,7.09,7.09,0,0,1-3.19-2.64A7.53,7.53,0,0,1,811.61,300.23Zm22.18,7.13V285.17h2.93v22.19Zm8.11,0V285.17h7.64a18.72,18.72,0,0,1,4,.32,7.46,7.46,0,0,1,3.25,1.59,9,9,0,0,1,2.63,3.79,14.9,14.9,0,0,1,.87,5.27,15.59,15.59,0,0,1-.59,4.48,11,11,0,0,1-1.52,3.24,8,8,0,0,1-2,2,8.11,8.11,0,0,1-2.65,1.11,15.18,15.18,0,0,1-3.56.38Zm2.94-2.62h4.74a11.23,11.23,0,0,0,3.44-.41,4.82,4.82,0,0,0,2-1.15,6.94,6.94,0,0,0,1.63-2.8,13.76,13.76,0,0,0,.58-4.28,10.33,10.33,0,0,0-1.14-5.35,5.81,5.81,0,0,0-2.78-2.51,11.58,11.58,0,0,0-3.8-.45h-4.66Zm34-19.57h2.94V298a15.25,15.25,0,0,1-.76,5.31,6.49,6.49,0,0,1-2.73,3.2,9.63,9.63,0,0,1-5.19,1.24,10.6,10.6,0,0,1-5.1-1.08,6.13,6.13,0,0,1-2.83-3.11,14.88,14.88,0,0,1-.85-5.56V285.17h2.94V298a12.5,12.5,0,0,0,.54,4.27,4.12,4.12,0,0,0,1.84,2.11,6.48,6.48,0,0,0,3.21.74q3.23,0,4.61-1.47t1.38-5.65Zm6.93,11.38q0-5.52,3-8.65a10.1,10.1,0,0,1,7.66-3.12,10.71,10.71,0,0,1,5.54,1.46,9.62,9.62,0,0,1,3.76,4.1,13.3,13.3,0,0,1,1.29,6,13,13,0,0,1-1.36,6,9.26,9.26,0,0,1-3.86,4,11,11,0,0,1-5.39,1.37,10.5,10.5,0,0,1-5.6-1.52,9.76,9.76,0,0,1-3.74-4.13A12.6,12.6,0,0,1,885.78,296.55Zm3,.05a8.89,8.89,0,0,0,2.16,6.32,7.53,7.53,0,0,0,10.86,0,9.41,9.41,0,0,0,2.15-6.61,11.37,11.37,0,0,0-.92-4.73,7,7,0,0,0-2.68-3.13,7.18,7.18,0,0,0-4-1.12,7.49,7.49,0,0,0-5.36,2.15C889.56,290.87,888.81,293.26,888.81,296.6Zm21,3.63,2.77-.24a6.2,6.2,0,0,0,.91,2.73,5,5,0,0,0,2.24,1.73,8.59,8.59,0,0,0,3.4.65,8.26,8.26,0,0,0,3-.49,4.12,4.12,0,0,0,1.92-1.38,3.21,3.21,0,0,0,.62-1.89,2.92,2.92,0,0,0-.6-1.83,4.49,4.49,0,0,0-2-1.31,40.27,40.27,0,0,0-3.95-1.08,19.58,19.58,0,0,1-4.28-1.39,6,6,0,0,1-2.37-2.06,5,5,0,0,1-.78-2.76,5.67,5.67,0,0,1,1-3.14,5.84,5.84,0,0,1,2.79-2.22,10.43,10.43,0,0,1,4.07-.76,11.14,11.14,0,0,1,4.35.8,6.26,6.26,0,0,1,2.9,2.33,6.79,6.79,0,0,1,1.09,3.5l-2.82.21a4.56,4.56,0,0,0-1.53-3.18,6.05,6.05,0,0,0-3.87-1.07,6.19,6.19,0,0,0-3.88,1,2.9,2.9,0,0,0-1.22,2.35,2.51,2.51,0,0,0,.86,2c.57.51,2,1,4.43,1.58a30,30,0,0,1,4.91,1.41,6.7,6.7,0,0,1,2.86,2.27,5.45,5.45,0,0,1,.92,3.15,6,6,0,0,1-1,3.34,6.76,6.76,0,0,1-2.91,2.44,10.2,10.2,0,0,1-4.28.87,12.7,12.7,0,0,1-5-.88,7,7,0,0,1-3.19-2.64A7.53,7.53,0,0,1,909.79,300.23Z" transform="translate(-58.62 -73.07)" style="fill:#308c55"/><line x1="345.38" y1="225.43" x2="314.88" y2="225.43" style="fill:#1c2746"/><line x1="912.38" y1="225.43" x2="881.88" y2="225.43" style="fill:#1c2746"/><g style="clip-path:url(#clip-path-3)"><g id="LETRA"><text transform="translate(356.57 234.29)" style="font-size:31px;fill:#78967e;font-family:ArialMT, Arial">MANEJO INTEGRA<tspan x="275.58" y="0" style="letter-spacing:-0.037109375em">L</tspan><tspan x="291.67" y="0" xml:space="preserve"> DE RESIDUOS</tspan></text><line x1="345.38" y1="225.43" x2="314.88" y2="225.43" style="fill:#78967e;stroke:#78967e;stroke-miterlimit:10;stroke-width:3px"/><line x1="912.38" y1="225.43" x2="881.88" y2="225.43" style="fill:#78967e;stroke:#78967e;stroke-miterlimit:10;stroke-width:3px"/></g></g><line x1="345.38" y1="225.43" x2="314.88" y2="225.43" style="fill:none;stroke:#308c55;stroke-miterlimit:10"/><line x1="912.38" y1="225.43" x2="881.88" y2="225.43" style="fill:none;stroke:#308c55;stroke-miterlimit:10"/></g></svg>