<svg id="Capa_1" data-name="Capa 1" xmlns="http://www.w3.org/2000/svg" viewBox="0 0 85.44 32.49"><title>esr</title><path d="M27.19,56.39l9.88-2.79a1.45,1.45,0,0,1-.33.49,23,23,0,0,1-7,5.73,24.63,24.63,0,0,1-8.22,2.75,16.5,16.5,0,0,1-6.92-.33A9.4,9.4,0,0,1,12,61.05a6.43,6.43,0,0,1-2.89-4.73,11.29,11.29,0,0,1,1-6.06,21.58,21.58,0,0,1,4.17-6.21A32.31,32.31,0,0,1,30,34.62,24.13,24.13,0,0,1,38.46,34a14.79,14.79,0,0,1,4.89,1.23,8.83,8.83,0,0,1,5.34,7.34,9.22,9.22,0,0,1,0,1.82c-.09-.59-.15-1.19-.26-1.77a7.63,7.63,0,0,0-5.77-6.23,19.22,19.22,0,0,0-3.85-.63,21.91,21.91,0,0,0-9.4,1.55A25.4,25.4,0,0,0,21.26,42a19.47,19.47,0,0,0-6.08,9.93A8.15,8.15,0,0,0,15,55.33a5.15,5.15,0,0,0,3.07,4,9.37,9.37,0,0,0,4.61.76,19.54,19.54,0,0,0,8.43-2.69c.11-.07.25-.1.31-.28l-4.25-.62Z" transform="translate(-7.45 -33.85)" style="fill:#fff"/><path d="M24.74,43.09l4.19.63s0,0,.1.08l-9.88,2.79a.83.83,0,0,1,.26-.43,23.55,23.55,0,0,1,8.71-6.6,23.73,23.73,0,0,1,7.25-2,15.56,15.56,0,0,1,6.81.59A8,8,0,0,1,45.31,40a6.52,6.52,0,0,1,1.84,4.05,11.51,11.51,0,0,1-1.11,6,21.25,21.25,0,0,1-3.74,5.66,32.24,32.24,0,0,1-16.11,9.85,24.14,24.14,0,0,1-8.38.66,14.63,14.63,0,0,1-5.38-1.44A8.78,8.78,0,0,1,7.54,57.9a12.44,12.44,0,0,1-.09-1.37,3.88,3.88,0,0,1,.06-.67c.06.63.14,1.25.26,1.86a7.66,7.66,0,0,0,5.77,6.12,19.32,19.32,0,0,0,3.85.62,21.6,21.6,0,0,0,8.94-1.39,25.78,25.78,0,0,0,8.83-5A19.54,19.54,0,0,0,41,48.57a8.09,8.09,0,0,0,.17-4A5.12,5.12,0,0,0,38.32,41a8.76,8.76,0,0,0-3.73-.87,16.22,16.22,0,0,0-6,1.07,20.38,20.38,0,0,0-3.42,1.58A.91.91,0,0,0,24.74,43.09Z" transform="translate(-7.45 -33.85)" style="fill:#fff"/><path d="M34.17,52.91H33c-.17,0-.22-.12-.28-.24l-.57-1.1a.93.93,0,0,0-.25-.39,3.58,3.58,0,0,0-.18.91,6,6,0,0,0-.09.61.21.21,0,0,1-.23.21,9.5,9.5,0,0,1-1.18,0c.09-.62.17-1.24.26-1.85L31,47.65c.06-.35.06-.37.41-.36a6.78,6.78,0,0,1,1.68.09,1.59,1.59,0,0,1,1.3,1.34,1.8,1.8,0,0,1-.91,2c-.23.1-.23.2-.12.39.24.45.46.9.69,1.34A1.23,1.23,0,0,1,34.17,52.91ZM33,49.05a.47.47,0,0,0-.14-.36.59.59,0,0,0-.49-.15c-.2,0-.14.23-.17.36s-.07.43-.1.65a.14.14,0,0,0,.14.18A.73.73,0,0,0,33,49.05Z" transform="translate(-7.45 -33.85)" style="fill:#fff"/><path d="M20.79,52.85c0-.58.16-1.16.24-1.74.16-1.13.34-2.26.51-3.39.06-.43.06-.43.48-.43h2.36a.65.65,0,0,1,.36,0,4.79,4.79,0,0,1-.11,1c0,.16-.15.16-.27.16h-1.2c-.34,0-.34,0-.39.33-.08.6-.24.59.51.59a5.35,5.35,0,0,1,1.06,0,.35.35,0,0,1,0,.14c-.07.34,0,.77-.21,1s-.65.06-1,.08c-.73,0-.63-.13-.77.68-.06.36,0,.36.3.35H23.8c.19,0,.24.08.23.27,0,1,0,1-1,1H21.25A.93.93,0,0,1,20.79,52.85Z" transform="translate(-7.45 -33.85)" style="fill:#fff"/><path d="M27.61,47.21a2.26,2.26,0,0,1,1.5.57c.15.12.22.23.06.39l-.14.18c-.15.18-.24.46-.46.52s-.36-.2-.56-.29a1.05,1.05,0,0,0-.38-.12.57.57,0,0,0-.53.34c-.07.2,0,.37.23.53s.36.2.54.3a1.84,1.84,0,0,1,1.05,1.13,1.76,1.76,0,0,1-1.15,2.09,2.45,2.45,0,0,1-2.47-.57.15.15,0,0,1,0-.26l.56-.69c.09-.13.18-.1.3,0s.34.23.52.33a.64.64,0,0,0,.6,0,.48.48,0,0,0,.13-.83,2.19,2.19,0,0,0-.58-.32,1.57,1.57,0,0,1-1.12-1.87,1.83,1.83,0,0,1,1.78-1.45Z" transform="translate(-7.45 -33.85)" style="fill:#fff"/><path d="M51.27,56.71c-.08.63-.15,1.2-.22,1.78,0,.35,0,.36-.42.35-.66,0-.69.16-.58-.66.18-1.32.33-2.65.49-4,.07-.57.06-.57.63-.57H52a3.15,3.15,0,0,1,.44,0,1.31,1.31,0,0,1,1.22,1.11,1.49,1.49,0,0,1-.79,1.56c-.15.09-.4.06-.44.25s.12.32.2.48c.22.47.46.93.69,1.39a.51.51,0,0,1,.09.38h-.85c-.18,0-.23-.12-.28-.24-.25-.52-.49-1-.74-1.57A.67.67,0,0,0,51.27,56.71Zm.15-1.31c0,.13-.09.32.11.34a1.06,1.06,0,0,0,1-.27.48.48,0,0,0-.16-.8,1.6,1.6,0,0,0-.61-.1c-.16,0-.23.07-.25.23S51.44,55.21,51.42,55.4Z" transform="translate(-7.45 -33.85)" style="fill:#fff"/><path d="M51.27,43.08c.61.09,1.2,0,1.8.07,0,.23,0,.45,0,.67s-.12.25-.3.25H51.48c-.36,0-.36,0-.41.36s-.07.5-.11.75,0,.24.22.24h1.2c.37,0,.37,0,.34.37,0,.08,0,.15,0,.22s-.09.29-.29.28H50.09c-.22,0-.28-.08-.25-.29.21-1.53.42-3.06.62-4.58,0-.21.1-.32.33-.31h2.32c.22,0,.29.09.25.3-.16.84.11.71-.79.72a6.42,6.42,0,0,1-.76,0c-.24,0-.39,0-.41.32S51.31,42.85,51.27,43.08Z" transform="translate(-7.45 -33.85)" style="fill:#fff"/><path d="M51.31,52.72a2.1,2.1,0,0,1-1.6-.84c-.08-.09-.1-.18,0-.26l.17-.15c.15-.12.26-.32.45-.33s.25.23.4.32a2.85,2.85,0,0,0,.37.23.52.52,0,0,0,.65-.1.59.59,0,0,0,.12-.69.93.93,0,0,0-.24-.32c-.24-.26-.49-.51-.74-.77a2.15,2.15,0,0,1-.48-.74,1.29,1.29,0,0,1,1.19-1.82A2,2,0,0,1,53.2,48c.12.15.11.26-.05.36l-.07.06c-.16.11-.3.29-.47.32s-.24-.23-.37-.34a1,1,0,0,0-.38-.22.41.41,0,0,0-.5.52,1.2,1.2,0,0,0,.35.51,6.65,6.65,0,0,1,1,1.16,1.48,1.48,0,0,1,.24,1.1A1.5,1.5,0,0,1,51.31,52.72Z" transform="translate(-7.45 -33.85)" style="fill:#fff"/><path d="M74.49,48.11l1.33,3.52c.79-1.2,1.5-2.36,2.26-3.5.14.11.09.22.09.31q0,1.85,0,3.69c0,.16.1.4-.2.4s-.21-.23-.21-.38c0-.67,0-1.34,0-2V49.6a7.21,7.21,0,0,0-.71,1c-.22.3-.42.62-.62.92l-.69,1-1.15-3h-.08a3.59,3.59,0,0,0-.12.35c-.23.75-.45,1.5-.68,2.25-.13.42-.13.42-.63.33l1.32-4.36Z" transform="translate(-7.45 -33.85)" style="fill:#fff"/><path d="M58,43.43,57,44.83l-1,1.45-1.16-3a.93.93,0,0,0-.18.38c-.22.77-.46,1.53-.69,2.3-.08.29,0,.43-.56.34a38.24,38.24,0,0,1,1.33-4.47l1.34,3.59,2.25-3.48c.16.07.11.19.11.28v3.74a1.62,1.62,0,0,1,0,.22c0,.1-.08.14-.18.15s-.21,0-.21-.17,0-.21,0-.31V43.46Z" transform="translate(-7.45 -33.85)" style="fill:#fff"/><path d="M84.75,56.39l.17.15A1.24,1.24,0,0,1,85.38,58a1.27,1.27,0,0,1-1.18.87c-.56.05-1.13,0-1.69,0-.22,0-.24-.12-.22-.29.07-.48.13-1,.19-1.45.12-.84.24-1.67.34-2.51,0-.26.14-.31.37-.31s.65,0,1,0a1.09,1.09,0,0,1,1.1.67,1.15,1.15,0,0,1-.36,1.32Zm-1.21,1.94a2.43,2.43,0,0,0,.94-.1.72.72,0,0,0,.48-.64.73.73,0,0,0-.4-.73,1.12,1.12,0,0,0-.5-.15h-.53c-.58,0-.5,0-.55.45,0,.15-.06.29-.06.44s-.2.5,0,.68S83.34,58.3,83.54,58.33Zm.12-2.14c.13,0,.26,0,.39,0a.87.87,0,0,0,.67-.39.65.65,0,0,0-.49-1c-.23,0-.47,0-.7,0s-.26.08-.28.26,0,.43-.08.65C83.11,56.19,83.11,56.19,83.66,56.19Z" transform="translate(-7.45 -33.85)" style="fill:#fff"/><path d="M56.37,47.89a2.11,2.11,0,0,1,2.11,2.61,2.79,2.79,0,0,1-2.43,2.2A2.13,2.13,0,0,1,53.75,50,2.76,2.76,0,0,1,56.37,47.89Zm0,.47a2.25,2.25,0,0,0-2.13,1.7,1.73,1.73,0,0,0,1.73,2.19A2.26,2.26,0,0,0,58,50.36,1.68,1.68,0,0,0,56.32,48.36Z" transform="translate(-7.45 -33.85)" style="fill:#fff"/><path d="M69.22,56.3a2.75,2.75,0,0,1-3,2.64,2.1,2.1,0,0,1-1.82-2.34,2.75,2.75,0,0,1,3.09-2.44A2.06,2.06,0,0,1,69.22,56.3Zm-4.37.47a1.66,1.66,0,0,0,1.32,1.67,2.21,2.21,0,0,0,2.58-2.35A1.7,1.7,0,0,0,67,54.59,2.23,2.23,0,0,0,64.85,56.77Z" transform="translate(-7.45 -33.85)" style="fill:#fff"/><path d="M64.94,44.15c.36.73.89,1.35,1.26,2.07-.54.13-.55.13-.8-.29l-.86-1.45-.14-.23a.28.28,0,0,0-.3-.14c-.14,0-.14.13-.16.23l-.15,1.15a5.58,5.58,0,0,1-.08.57.31.31,0,0,1-.45.24c-.13-.06-.09-.18-.08-.27l.18-1.36c.12-.85.24-1.7.35-2.55,0-.38.06-.38.45-.38s.74,0,1.11,0a1.1,1.1,0,0,1,1.12.71,1.38,1.38,0,0,1-.34,1.4.84.84,0,0,1-.6.25A1.15,1.15,0,0,0,64.94,44.15Zm-.08-1.93h-.49c-.11,0-.2,0-.21.17l-.09,1.1c0,.15.05.22.2.22h.89a.82.82,0,0,0,.3-.07.84.84,0,0,0,.47-1c-.07-.3-.28-.44-.71-.45Z" transform="translate(-7.45 -33.85)" style="fill:#fff"/><path d="M73.29,58.75l-2.51-3.27a6.58,6.58,0,0,0-.22,1.22q-.15.94-.27,1.89c0,.18-.1.26-.28.26s-.26-.07-.23-.27c.21-1.42.41-2.84.63-4.33a11.84,11.84,0,0,1,.88,1.11c.29.37.57.75.86,1.13L73,57.61a5.83,5.83,0,0,0,.2-1.18c.1-.64.18-1.29.27-1.93,0-.1,0-.21.14-.25s.34,0,.31.26c-.09.79-.2,1.58-.31,2.38-.08.61-.16,1.22-.25,1.82Z" transform="translate(-7.45 -33.85)" style="fill:#fff"/><path d="M85.9,52.44l-2.53-3.3c-.1.69-.19,1.27-.27,1.85-.07.42-.13.85-.19,1.27,0,.12,0,.24-.17.27s-.36,0-.32-.29c.15-1.07.3-2.14.46-3.21,0-.34.09-.67.16-1.11.91,1.14,1.71,2.27,2.6,3.4A8.56,8.56,0,0,0,85.85,50c.09-.6.17-1.2.25-1.8,0-.1,0-.21.15-.25s.34,0,.31.27c0,.44-.11.88-.17,1.32L86,52.4Z" transform="translate(-7.45 -33.85)" style="fill:#fff"/><path d="M67.74,43.66h1.78c.12,0,.24,0,.27.16s0,.31-.25.31H68c-.33,0-.34,0-.39.34s-.08.61-.11.92,0,.38.33.38h1.47c.16,0,.23.06.24.23s-.09.28-.29.28h-2c-.29,0-.3,0-.26-.31l.42-3.08c0-.29.1-.58.13-.88s.08-.29.29-.29c.65,0,1.31,0,2,0,.19,0,.26.07.26.27s-.13.23-.29.22H68.27c-.21,0-.32.06-.35.28S67.81,43.23,67.74,43.66Z" transform="translate(-7.45 -33.85)" style="fill:#fff"/><path d="M90.34,52a.73.73,0,0,0,.45.06h1.38c.21,0,.24.12.24.29s-.08.23-.25.23H90c-.19,0-.26-.06-.23-.26l.57-4c0-.19.07-.3.29-.29h2c.18,0,.28,0,.28.25s-.12.24-.28.24c-.49,0-1,0-1.47,0-.24,0-.35.09-.38.32s-.11.7-.16,1.06a1.35,1.35,0,0,0,.66.07h1.06c.18,0,.32,0,.31.25s-.14.22-.29.22H90.92c-.39,0-.39,0-.44.38S90.39,51.57,90.34,52Z" transform="translate(-7.45 -33.85)" style="fill:#fff"/><path d="M89.68,56.22h1.77c.15,0,.26,0,.27.21s0,.27-.25.27c-.46,0-.92,0-1.38,0s-.48,0-.55.5c0,.26-.07.52-.1.79s0,.33.28.34h1.42c.31,0,.33,0,.34.27s-.14.25-.32.25h-2c-.31,0-.33,0-.28-.34.12-.94.26-1.87.39-2.81l.15-1.1c0-.18.08-.3.3-.3h2c.14,0,.25,0,.26.21s0,.27-.25.27H90.28c-.37,0-.4,0-.45.37A9.86,9.86,0,0,0,89.68,56.22Z" transform="translate(-7.45 -33.85)" style="fill:#fff"/><path d="M80.31,52.54h-1c-.21,0-.29,0-.26-.28.19-1.32.39-2.64.56-4,0-.24.13-.32.37-.31h1.82c.16,0,.34,0,.33.23s0,.25-.35.26H80.38c-.33,0-.33,0-.39.34s-.08.56-.14.84,0,.26.23.26h1.51c.17,0,.28,0,.28.24s-.07.24-.24.24H80.16c-.4,0-.4,0-.45.41s-.06.65-.12,1,0,.26.24.26h1.55c.16,0,.26,0,.27.22s0,.29-.27.29Z" transform="translate(-7.45 -33.85)" style="fill:#fff"/><path d="M54.72,56.14a.6.6,0,0,0,.42.08h1.11c.49,0,.5,0,.51.23s0,.25-.49.25H55c-.37,0-.37,0-.41.35s-.08.68-.14,1,0,.26.23.26h1.51c.27,0,.32.06.3.31a.2.2,0,0,1-.22.21H54.12c-.19,0-.22-.11-.2-.26.07-.44.13-.88.19-1.32l.36-2.55c.06-.42.06-.42.5-.42h1.77c.19,0,.27.07.26.26s-.11.22-.26.22H55.32c-.37,0-.37,0-.44.38S54.77,55.83,54.72,56.14Z" transform="translate(-7.45 -33.85)" style="fill:#fff"/><path d="M62.75,42.84a1.25,1.25,0,0,1-1.34,1.33h-.89c-.2,0-.29,0-.31.27-.05.52-.11,1-.17,1.55,0,.15,0,.28-.24.3s-.4,0-.35-.36c.16-1.31.34-2.61.5-3.92,0-.21.11-.28.31-.28.5,0,1,0,1.51,0A1,1,0,0,1,62.75,42.84ZM61,43.71a2.46,2.46,0,0,0,.7-.06.73.73,0,0,0,.63-.79.69.69,0,0,0-.73-.63,5.61,5.61,0,0,0-.58,0c-.58,0-.54,0-.6.49,0,.12,0,.24-.05.35C60.25,43.71,60.25,43.71,61,43.71Z" transform="translate(-7.45 -33.85)" style="fill:#fff"/><path d="M63.29,52a2.73,2.73,0,0,1-2.89.54A2.11,2.11,0,0,1,59.18,50a2.91,2.91,0,0,1,3.71-2,2.06,2.06,0,0,1,.72.44.22.22,0,0,1,0,.34c-.13.17-.21.19-.38,0a2,2,0,0,0-2.2-.34,2.18,2.18,0,0,0-1.43,1.78,1.75,1.75,0,0,0,2,1.93,2.54,2.54,0,0,0,1.16-.42C63.08,51.62,63.08,51.63,63.29,52Z" transform="translate(-7.45 -33.85)" style="fill:#fff"/><path d="M62.2,54.31c.27,0,.54,0,.8,0a.94.94,0,0,1,.89.79,1.29,1.29,0,0,1-1.27,1.63h-.84c-.36,0-.36,0-.4.35s-.12,1-.17,1.49c0,.1,0,.23-.13.26a.54.54,0,0,1-.43,0c-.1-.06,0-.19,0-.28l.27-2.07c.08-.62.17-1.23.24-1.85,0-.22.1-.32.33-.3s.5,0,.75,0ZM62,56.25h.53a1.55,1.55,0,0,0,.31-.06.71.71,0,0,0,.58-.78.68.68,0,0,0-.69-.63,5.56,5.56,0,0,0-.58,0c-.56,0-.58-.13-.64.54,0,.11,0,.21,0,.31C61.43,56.34,61.27,56.26,62,56.25Z" transform="translate(-7.45 -33.85)" style="fill:#fff"/><path d="M80.05,54.28l1.58,4.5c-.47.1-.47.1-.59-.26s-.22-.61-.32-.92a.29.29,0,0,0-.31-.24H79a.36.36,0,0,0-.38.24c-.16.3-.36.58-.5.89a.54.54,0,0,1-.77.31C78.22,57.31,79.11,55.83,80.05,54.28Zm-.14,1.13L79,56.91a11.69,11.69,0,0,0,1.46,0A14.91,14.91,0,0,0,79.91,55.41Z" transform="translate(-7.45 -33.85)" style="fill:#fff"/><path d="M73.23,46.24l2.68-4.49a3.16,3.16,0,0,1,.14.32c.45,1.27.9,2.54,1.34,3.81l0,.08c0,.11.15.22,0,.31a.32.32,0,0,1-.44-.16c-.08-.21-.14-.42-.22-.63-.29-.8-.06-.65-.93-.67-.27,0-.54,0-.8,0a.51.51,0,0,0-.59.35c-.13.28-.31.54-.46.81S73.76,46.32,73.23,46.24Zm3.11-1.9a12.43,12.43,0,0,0-.53-1.44A4.65,4.65,0,0,0,75,44.36,12.45,12.45,0,0,0,76.34,44.34Z" transform="translate(-7.45 -33.85)" style="fill:#fff"/><path d="M69.63,52.48c-.47.08-.48.08-.59-.27s-.21-.59-.3-.88-.13-.28-.34-.27H67a.35.35,0,0,0-.35.21c-.17.3-.36.58-.51.89s-.33.48-.7.34a0,0,0,0,1,0,0s0,0,0,0c.77-1.4,1.63-2.75,2.44-4.12a.51.51,0,0,1,.23-.26ZM67.92,49.1a16.7,16.7,0,0,0-.87,1.48h1.4C68.31,50.09,68.13,49.64,67.92,49.1Z" transform="translate(-7.45 -33.85)" style="fill:#fff"/><path d="M71.56,46.41a1.37,1.37,0,0,1-1.28-.83c-.06-.15,0-.22.14-.27s.24-.15.32,0a1.24,1.24,0,0,0,.1.2.85.85,0,0,0,1.1.3.84.84,0,0,0,.35-1,1.18,1.18,0,0,0-.3-.49c-.22-.22-.44-.44-.65-.67a1.49,1.49,0,0,1-.46-1.16.92.92,0,0,1,.57-.83,1,1,0,0,1,1.13.11,1.76,1.76,0,0,1,.41.53c.06.1.07.21-.06.24s-.25.17-.35,0a1.19,1.19,0,0,0-.08-.16.63.63,0,1,0-1,.72,6,6,0,0,0,.48.53c.17.19.33.38.51.56a1.28,1.28,0,0,1,.2,1.49A1.14,1.14,0,0,1,71.56,46.41Z" transform="translate(-7.45 -33.85)" style="fill:#fff"/><path d="M77.2,55.09c-.37.17-.37.17-.54-.08a.69.69,0,0,0-1-.24.65.65,0,0,0-.06.95c.31.38.65.73,1,1.09a1.15,1.15,0,0,1,.31,1.1,1.19,1.19,0,0,1-1.12,1,1.31,1.31,0,0,1-1.36-.8c-.06-.13-.06-.22.09-.28s.27-.16.36.06L75,58a.86.86,0,0,0,1.19.33.91.91,0,0,0,.19-1.16,1.54,1.54,0,0,0-.25-.32c-.21-.22-.44-.44-.64-.67A1.37,1.37,0,0,1,75,55.09a1,1,0,0,1,.68-.85,1,1,0,0,1,1.11.23A1.64,1.64,0,0,1,77.2,55.09Z" transform="translate(-7.45 -33.85)" style="fill:#fff"/><path d="M58.71,59a1.36,1.36,0,0,1-1.31-.81c0-.14,0-.23.12-.28s.24-.16.33,0a1.74,1.74,0,0,0,.1.19.8.8,0,0,0,1.44-.69,1.28,1.28,0,0,0-.31-.48c-.24-.25-.49-.48-.71-.74A1.41,1.41,0,0,1,58,55.12a.92.92,0,0,1,.56-.83,1,1,0,0,1,1.13.1,1.27,1.27,0,0,1,.36.44c.06.11.2.24,0,.34s-.31.16-.39-.09a.54.54,0,0,0-.09-.15.68.68,0,0,0-.88-.18.64.64,0,0,0-.16.87,1.37,1.37,0,0,0,.21.28l.85.92a1.28,1.28,0,0,1,.19,1.45A1.16,1.16,0,0,1,58.71,59Z" transform="translate(-7.45 -33.85)" style="fill:#fff"/><path d="M71.5,52.54h-1c-.2,0-.26-.08-.23-.27L70.47,51c.12-.9.24-1.79.37-2.68,0-.13,0-.28.17-.32s.43,0,.38.35c-.14,1.13-.29,2.26-.43,3.39,0,.28,0,.29.26.3h1.29c.18,0,.27.07.26.26s-.09.23-.25.23Z" transform="translate(-7.45 -33.85)" style="fill:#fff"/><path d="M85.86,58.84c.1-.67.18-1.28.26-1.89.11-.8.23-1.59.34-2.38,0-.17.06-.27.26-.27s.32,0,.29.29c-.07.58-.15,1.15-.22,1.72s-.16,1.15-.22,1.72c0,.3,0,.3.26.31l1.25,0c.25,0,.32.08.29.31s-.06.17-.17.17Z" transform="translate(-7.45 -33.85)" style="fill:#fff"/><path d="M87.14,48.42c0-.42,0-.42.39-.43h2.08c.25,0,.31.12.24.33s-.14.14-.24.14H89c-.19,0-.27.07-.29.25-.07.49-.15,1-.21,1.49-.1.69-.2,1.37-.29,2.06a1.13,1.13,0,0,1,0,.18c0,.15-.16.15-.28.14s-.15-.12-.13-.23c.07-.57.15-1.14.22-1.71s.16-1.17.23-1.76c0-.4,0-.4-.38-.41A2.5,2.5,0,0,1,87.14,48.42Z" transform="translate(-7.45 -33.85)" style="fill:#fff"/><path d="M64.22,52.21c.1-.74.21-1.53.32-2.32.07-.55.16-1.09.22-1.63,0-.22.11-.27.31-.27s.25.09.22.27c-.06.38-.11.76-.17,1.14-.14,1-.28,1.9-.43,2.85,0,.1,0,.22-.12.27S64.21,52.5,64.22,52.21Z" transform="translate(-7.45 -33.85)" style="fill:#fff"/></svg>