<svg id="Capa_1" data-name="Capa 1" xmlns="http://www.w3.org/2000/svg" viewBox="0 0 20 20"><defs><style>.cls-1{fill:#1c2746;}.cls-2{fill:#fdfdfd;}</style></defs><path class="cls-1" d="M0,9.92V9.43a2.45,2.45,0,0,1,.53-.74C3.42,5.94,6.3,3.17,9.18.41a1,1,0,0,1,1.64,0l8.56,8.2a2,2,0,0,1,.62.86v.45l0,0a1.06,1.06,0,0,1-1.16.83h-1c-.26,0-.26,0-.26.26v8.24c0,.5-.22.73-.69.73H12.14c-.48,0-.69-.23-.69-.74,0-1.64,0-3.29,0-4.93,0-.15,0-.18-.17-.18H8.74c-.15,0-.19,0-.19.2,0,1.66,0,3.31,0,5,0,.42-.22.68-.6.68H3.05a.55.55,0,0,1-.52-.33.87.87,0,0,1-.07-.42V11c0-.26,0-.26-.26-.26H1.11A1,1,0,0,1,0,10Z" transform="translate(0 0)"/><path class="cls-2" d="M18,5.55a.32.32,0,0,0,0-.19V2c0-.53-.21-.75-.7-.75H13.44Z" transform="translate(0 0)"/><path class="cls-1" d="M18,5.55,13.44,1.24h3.83c.49,0,.7.22.7.75V5.36A.32.32,0,0,1,18,5.55Z" transform="translate(0 0)"/></svg>