<svg id="Capa_1" data-name="Capa 1" xmlns="http://www.w3.org/2000/svg"  width="722.91" height="735.96" viewBox="0 0 722.91 735.96"><title>ecoblanco</title><path d="M232,36C337.62-22.72,471.83,6.11,544,103s61.39,233.59-25,318c4.1-15.39,37.18-148.92-53-266C379.37,42.53,249.27,36.5,232,36Z" transform="translate(-10.38 -5.68)" style="fill:#fff"/><path d="M10.38,326.57c1.89-120.83,93.9-222.7,213.88-236.83s233,63.49,263,180.5C476,259,376.82,163.64,230.35,183.29,89.65,202.17,19.44,311.87,10.38,326.57Z" transform="translate(-10.38 -5.68)" style="fill:#fff"/><path d="M147.94,662.7C44.34,600.48,2.34,469.8,50.28,358.9s171.77-169.78,288-137C322.93,226,190.71,264,134.27,400.54,80.05,531.74,139.76,647.49,147.94,662.7Z" transform="translate(-10.38 -5.68)" style="fill:#fff"/><path d="M512.71,710.65C407.42,770,273.06,741.91,200.33,645.44S137.61,412.2,223.51,327.3C219.5,342.72,187.18,476.44,278,593,365.31,705,495.44,710.25,512.71,710.65Z" transform="translate(-10.38 -5.68)" style="fill:#fff"/><path d="M733.3,416.52c-.1,120.85-90.6,224.06-210.36,240S289,596.45,257.3,479.9c11.45,11.07,112,105,258.17,83.14C655.88,542.08,724.46,431.36,733.3,416.52Z" transform="translate(-10.38 -5.68)" style="fill:#fff"/><path d="M590.86,84.49c104.08,61.42,147.09,191.77,100,303s-170.45,171.12-287,139.29c15.35-4.25,147.27-43.25,202.65-180.27C659.76,214.92,599.16,99.64,590.86,84.49Z" transform="translate(-10.38 -5.68)" style="fill:#fff"/></svg>