<svg id="Capa_1" data-name="Capa 1" xmlns="http://www.w3.org/2000/svg" viewBox="0 0 20 20"><defs><style>.cls-1{fill:#fe4a4a;}.cls-2{fill:#fcba25;}.cls-3{fill:#369;}.cls-4{fill:#e63540;}.cls-5{fill:#4de066;}.cls-6{fill:#1c2746;}.cls-7{fill:#fcda56;}.cls-8{fill:#45c767;}.cls-9{fill:#45c768;}.cls-10{fill:#4ce066;}.cls-11{fill:#fdda56;}.cls-12{fill:#fdba24;}</style></defs><path class="cls-1" d="M5.16,17.6l-1.66.82-3,1.51c-.25.12-.33.1-.5-.14v-.35c.11-.43.16-.87.23-1.31C.41,17.06.58,16,.75,14.9a.29.29,0,0,1,0-.1l.09,0L4.8,12.43a4.74,4.74,0,0,1,.7-.38c0,.21,0,.42,0,.63-.06.9-.12,1.8-.19,2.69,0,.48-.08.94-.1,1.41A2.51,2.51,0,0,0,5.16,17.6Z" transform="translate(0 0)"/><path class="cls-2" d="M20,19.79l-.11.12-4.1-5.54c-.41-.54-.79-1.1-1.22-1.61a.12.12,0,0,1,0-.1l-.15-2.25c.07.09.15.17.21.26l5,6.45a5.82,5.82,0,0,1,.2,1c.09.45.13.91.24,1.35Z" transform="translate(0 0)"/><path class="cls-3" d="M6.64,7.6c-.14-.36-.29-.72-.41-1.1a5.36,5.36,0,0,1,0-3.6A4.14,4.14,0,0,1,9.36.07l.21,0a1.14,1.14,0,0,0,.36.1,4.09,4.09,0,0,1,2.16,1.5A4.74,4.74,0,0,1,13,4.13a6.39,6.39,0,0,1-.57,3.12,11.5,11.5,0,0,1-1.41,2.37A14.81,14.81,0,0,1,9.49,11.4a10.18,10.18,0,0,1-.73-.74A14.51,14.51,0,0,1,7.18,8.53C7,8.23,6.82,7.91,6.64,7.6Zm4.89-3A1.6,1.6,0,0,0,10,2.9,1.61,1.61,0,0,0,8.5,4.59,1.62,1.62,0,0,0,10,6.29,1.61,1.61,0,0,0,11.53,4.59Z" transform="translate(0 0)"/><path class="cls-4" d="M19.56,17.12l-5-6.45c-.06-.09-.14-.17-.21-.26h0l.11-.05,2-.49c.5-.13,1-.22,1.49-.39l.3.17a.43.43,0,0,1,.21.34c.19,1.19.39,2.38.58,3.57s.35,2.18.53,3.27A.76.76,0,0,1,19.56,17.12Z" transform="translate(0 0)"/><path class="cls-5" d="M1.13,12.79a13.31,13.31,0,0,1,.21-1.41c.06-.46.15-.91.22-1.36a.5.5,0,0,1,.24-.39L5.62,7.25a.29.29,0,0,1,.24,0c0,.23,0,.45,0,.67-.07.77-.13,1.53-.16,2.3l0,0-.11,0-3.72,2.2A3.21,3.21,0,0,1,1.13,12.79Z" transform="translate(0 0)"/><path class="cls-6" d="M9.49,11.4a14.81,14.81,0,0,0,1.57-1.78,11.5,11.5,0,0,0,1.41-2.37A6.39,6.39,0,0,0,13,4.13a4.74,4.74,0,0,0-.95-2.5A4.09,4.09,0,0,0,9.93.13,1.14,1.14,0,0,1,9.57,0a4.12,4.12,0,0,1,4.35,3.12A5.46,5.46,0,0,1,14,5.93a7.09,7.09,0,0,1-.57,1.62l-.11.23A13.61,13.61,0,0,1,12,9.86c-.39.47-.79.93-1.21,1.36a1.91,1.91,0,0,1-.75.61A1.4,1.4,0,0,1,9.49,11.4Z" transform="translate(0 0)"/><path class="cls-7" d="M1.13,12.79a3.21,3.21,0,0,0,.66-.35l3.72-2.2.11,0c0,.12,0,.23,0,.35,0,.49-.07,1-.11,1.48v0h0a4.74,4.74,0,0,0-.7.38L.87,14.76l-.09,0c.11-.66.22-1.31.32-2l0,0Z" transform="translate(0 0)"/><path class="cls-8" d="M5.66,10.17c0-.77.09-1.53.16-2.3,0-.22,0-.44,0-.67a2,2,0,0,1,.57.29l.21.11c.18.31.35.63.54.93a14.51,14.51,0,0,0,1.58,2.13l-1.25-.19C6.89,10.38,6.28,10.27,5.66,10.17Z" transform="translate(0 0)"/><path class="cls-2" d="M17.93,9.47c-.49.17-1,.26-1.49.39l-2,.49-.11.05c0-.54-.1-1.08-.08-1.62l1.75-.48Z" transform="translate(0 0)"/><path class="cls-5" d="M12,9.86a13.61,13.61,0,0,0,1.33-2.08l.11-.23c.19,0,.32-.16.48-.24s.16-.12.26-.11a9.15,9.15,0,0,1,.12,1.57l-1.95,1C12.19,9.79,12.09,9.88,12,9.86Z" transform="translate(0 0)"/><path class="cls-9" d="M14.26,8.77a9.15,9.15,0,0,0-.12-1.57.29.29,0,0,1,.24,0L16.05,8.3l-1.75.48Z" transform="translate(0 0)"/><path class="cls-5" d="M1.13,12.79l0,0S1.1,12.79,1.13,12.79Z" transform="translate(0 0)"/><path class="cls-10" d="M14.53,12.66a.12.12,0,0,0,0,.1c0,.38,0,.75.07,1.12.06.67.08,1.33.13,2,0,.28.07.55.06.82a3.09,3.09,0,0,1,0,.91L12.08,19l-.2.09L10,16.9V12.49l.13,0c.82-.4,1.65-.79,2.47-1.2a.25.25,0,0,1,.34,0Z" transform="translate(0 0)"/><path class="cls-4" d="M5.16,17.6a2.51,2.51,0,0,1,0-.82c0-.47.07-.93.1-1.41.07-.89.13-1.79.19-2.69,0-.21,0-.42,0-.63h0v0l.12.2q1.45,2.44,2.89,4.91L10,19.62V20a6.58,6.58,0,0,1-1-.49Z" transform="translate(0 0)"/><path class="cls-9" d="M14.85,17.6a3.09,3.09,0,0,0,0-.91c0-.27-.05-.54-.06-.82,0-.66-.07-1.32-.13-2,0-.37-.07-.74-.07-1.12.43.51.81,1.07,1.22,1.61l4.1,5.54c-.15.12-.29.06-.44,0l-4.33-2.17Z" transform="translate(0 0)"/><path class="cls-7" d="M10,20V16.9l1.88,2.17A19.21,19.21,0,0,1,10,20Z" transform="translate(0 0)"/><path class="cls-11" d="M14.53,12.66l-1.59-1.37a.25.25,0,0,0-.34,0c-.82.41-1.65.8-2.47,1.2l-.13,0v-.66a1.91,1.91,0,0,0,.75-.61c.42-.43.82-.89,1.21-1.36.13,0,.23-.07.35-.12l1.95-1h0c0,.54.07,1.08.08,1.62h0Z" transform="translate(0 0)"/><path class="cls-12" d="M10,11.83v.69l-2.67-.36a1.43,1.43,0,0,0,.1.19l1.26,2.21c.43.77.87,1.53,1.31,2.3v2.76L8.52,17.14q-1.44-2.46-2.89-4.91L5.51,12c0-.49.07-1,.11-1.48,0-.12,0-.23,0-.35l0,0c.62.1,1.23.21,1.85.3l1.25.19a10.18,10.18,0,0,0,.73.74A1.4,1.4,0,0,0,10,11.83Z" transform="translate(0 0)"/><path class="cls-8" d="M10,16.86c-.44-.77-.88-1.53-1.31-2.3L7.43,12.35a1.43,1.43,0,0,1-.1-.19l2.67.36Z" transform="translate(0 0)"/></svg>