<svg id="Capa_1" data-name="Capa 1" xmlns="http://www.w3.org/2000/svg" viewBox="0 0 20 20"><defs><style>.cls-1{fill:#1c2746;}</style></defs><path class="cls-1" d="M6.19,0H14.9V4.39a.6.6,0,0,0,.68.69h4.21c.18,0,.21,0,.21.22,0,2.85,0,5.7,0,8.55v4.37a1.77,1.77,0,0,1-1.19,1.69l-.34.1H9.09c0-.09.05-.1.09-.13a6.33,6.33,0,0,0,2.52-4.35c0-.19.1-.21.25-.21h4.63a.59.59,0,1,0,0-1.17H11.94c-.15,0-.23,0-.23-.19a3.38,3.38,0,0,0-.09-.54,6.45,6.45,0,0,0-.57-1.61H16.6a.61.61,0,0,0,.61-.37.59.59,0,0,0-.6-.8q-3,0-6.09,0a.46.46,0,0,1-.4-.18A6.41,6.41,0,0,0,4.84,8.3c-.11,0-.14,0-.14-.12,0-2.17,0-4.33,0-6.49A1.67,1.67,0,0,1,5.37.38,2.46,2.46,0,0,1,6.19,0Zm6.18,7.11H8.1a.6.6,0,0,0-.61.37.59.59,0,0,0,.59.8h8.55a.57.57,0,0,0,.57-.36.58.58,0,0,0-.58-.81Z"/><path class="cls-1" d="M4.7,20a3.81,3.81,0,0,0-.65-.15,5.29,5.29,0,1,1,2.25,0,2.77,2.77,0,0,0-.5.1ZM3.33,14.65a.61.61,0,0,0-.58.35.57.57,0,0,0,.14.66L4,16.73a.63.63,0,0,0,1,0c.81-.82,1.63-1.63,2.45-2.44l.23-.24a.58.58,0,0,0-.33-1,.61.61,0,0,0-.58.2C6,14,5.31,14.72,4.6,15.44c-.11.12-.17.11-.28,0s-.4-.4-.59-.6A.6.6,0,0,0,3.33,14.65Z"/><path class="cls-1" d="M16.07.38,19.6,3.9s-.09,0-.14,0c-1.07,0-2.14,0-3.21,0-.14,0-.18,0-.18-.18,0-1.06,0-2.13,0-3.2Z"/></svg>