<svg id="Capa_1" data-name="Capa 1" xmlns="http://www.w3.org/2000/svg" viewBox="0 0 400.25 139.4"><defs><style>.cls-1{fill:#fff;}</style></defs><path class="cls-1" d="M140.56,226V174.46h38.21v8.72H151v11.43h25.88v8.68H151v14h28.8V226Z" transform="translate(-140.56 -173.59)"/><path class="cls-1" d="M221.56,207.05l10.09,3.2q-2.33,8.44-7.72,12.54t-13.69,4.09a22.19,22.19,0,0,1-16.88-7q-6.62-7-6.61-19.18,0-12.87,6.65-20t17.47-7.12q9.45,0,15.36,5.59a20.3,20.3,0,0,1,5.28,9.49l-10.3,2.46a11,11,0,0,0-3.82-6.33,10.9,10.9,0,0,0-7-2.32,11.74,11.74,0,0,0-9.3,4.11q-3.57,4.13-3.57,13.33,0,9.77,3.52,13.92a11.4,11.4,0,0,0,9.14,4.15,10.41,10.41,0,0,0,7.14-2.64Q220.26,212.71,221.56,207.05Z" transform="translate(-140.56 -173.59)"/><path class="cls-1" d="M238.47,200.55a32.82,32.82,0,0,1,2.35-13.22,24.13,24.13,0,0,1,4.8-7.06,20.13,20.13,0,0,1,6.66-4.65,28.49,28.49,0,0,1,11.11-2q11.4,0,18.23,7.06t6.84,19.65q0,12.48-6.79,19.53t-18.14,7q-11.49,0-18.28-7T238.47,200.55Zm10.72-.35q0,8.76,4,13.27a13.9,13.9,0,0,0,20.48,0q4-4.48,4-13.45t-3.88-13.22a14.4,14.4,0,0,0-20.69,0Q249.19,191.3,249.19,200.2Z" transform="translate(-140.56 -173.59)"/><path class="cls-1" d="M305.9,226l-13.68-51.54h7l7.84,33.79q1.26,5.31,2.18,10.55,2-8.27,2.32-9.53l9.81-34.81h8.22L337,200.55a136.78,136.78,0,0,1,4,18.25q1-4.89,2.57-11.22l8.08-33.12h6.86L344.36,226h-6.58l-10.86-39.27q-1.37-4.92-1.62-6-.81,3.56-1.51,6L312.86,226Z" transform="translate(-140.56 -173.59)"/><path class="cls-1" d="M356.52,226l19.79-51.54h7.35L404.76,226H397l-6-15.61H369.42L363.76,226Zm14.87-21.16h17.48l-5.38-14.27q-2.46-6.51-3.66-10.69a65.45,65.45,0,0,1-2.78,9.84Z" transform="translate(-140.56 -173.59)"/><path class="cls-1" d="M407.88,209.45l6.44-.57a14.07,14.07,0,0,0,2.13,6.35,11.62,11.62,0,0,0,5.18,4,19.62,19.62,0,0,0,7.91,1.53,19,19,0,0,0,6.89-1.16,9.61,9.61,0,0,0,4.45-3.19,7.36,7.36,0,0,0,1.46-4.41,6.66,6.66,0,0,0-1.41-4.23,10.47,10.47,0,0,0-4.64-3.05,94.54,94.54,0,0,0-9.17-2.51,46.63,46.63,0,0,1-9.95-3.22,13.92,13.92,0,0,1-5.51-4.79,11.85,11.85,0,0,1-1.81-6.42,13.12,13.12,0,0,1,2.22-7.3,13.72,13.72,0,0,1,6.47-5.15,24.55,24.55,0,0,1,9.45-1.75,25.87,25.87,0,0,1,10.11,1.84,14.56,14.56,0,0,1,6.73,5.43,15.64,15.64,0,0,1,2.54,8.12l-6.54.5a10.6,10.6,0,0,0-3.57-7.39q-3-2.49-9-2.49c-4.13,0-7.14.75-9,2.27a6.78,6.78,0,0,0-2.83,5.46,5.87,5.87,0,0,0,2,4.57q2,1.8,10.28,3.68a68.3,68.3,0,0,1,11.41,3.28,15.71,15.71,0,0,1,6.65,5.26,12.79,12.79,0,0,1,2.14,7.33,14,14,0,0,1-2.35,7.75,15.51,15.51,0,0,1-6.77,5.66,23.53,23.53,0,0,1-9.93,2,29.68,29.68,0,0,1-11.73-2,16.47,16.47,0,0,1-7.42-6.13A17.48,17.48,0,0,1,407.88,209.45Z" transform="translate(-140.56 -173.59)"/><path class="cls-1" d="M471.34,226V180.55h-17v-6.09h40.85v6.09h-17V226Z" transform="translate(-140.56 -173.59)"/><path class="cls-1" d="M502.35,226V174.46h37.27v6.09H509.17v15.78h28.51v6H509.17v17.54h31.64V226Z" transform="translate(-140.56 -173.59)"/><path class="cls-1" d="M212.3,301.37l4.29-.38a9.33,9.33,0,0,0,1.42,4.23,7.73,7.73,0,0,0,3.45,2.67,13.12,13.12,0,0,0,5.28,1,12.76,12.76,0,0,0,4.59-.77,6.32,6.32,0,0,0,3-2.12,4.92,4.92,0,0,0,1-2.94,4.47,4.47,0,0,0-.94-2.83,7,7,0,0,0-3.09-2c-.93-.35-3-.91-6.12-1.67a30.62,30.62,0,0,1-6.63-2.15,9.29,9.29,0,0,1-3.67-3.19,7.82,7.82,0,0,1-1.21-4.28,8.71,8.71,0,0,1,1.48-4.87,9.15,9.15,0,0,1,4.31-3.43,16.38,16.38,0,0,1,6.31-1.17,17.19,17.19,0,0,1,6.73,1.23,9.73,9.73,0,0,1,4.49,3.62,10.38,10.38,0,0,1,1.69,5.41l-4.36.33a7,7,0,0,0-2.38-4.92q-2-1.67-6-1.66-4.12,0-6,1.51a4.53,4.53,0,0,0-1.89,3.64,3.92,3.92,0,0,0,1.34,3.05c.88.8,3.16,1.61,6.86,2.45a46.19,46.19,0,0,1,7.6,2.19,10.41,10.41,0,0,1,4.43,3.5,8.59,8.59,0,0,1,1.43,4.89,9.33,9.33,0,0,1-1.57,5.17,10.34,10.34,0,0,1-4.51,3.77A15.7,15.7,0,0,1,227,313a19.71,19.71,0,0,1-7.82-1.36,10.94,10.94,0,0,1-4.94-4.09A11.53,11.53,0,0,1,212.3,301.37Z" transform="translate(-140.56 -173.59)"/><path class="cls-1" d="M246.52,312.4v-4.8h4.8v4.8Z" transform="translate(-140.56 -173.59)"/><path class="cls-1" d="M255.42,312.4,268.62,278h4.9l14.06,34.36H282.4l-4-10.4H264l-3.78,10.4Zm9.92-14.11H277l-3.59-9.51c-1.09-2.89-1.91-5.27-2.44-7.13a42.7,42.7,0,0,1-1.85,6.57Z" transform="translate(-140.56 -173.59)"/><path class="cls-1" d="M291.87,312.4v-4.8h4.8v4.8Z" transform="translate(-140.56 -173.59)"/><path class="cls-1" d="M333.49,312.4v-3.14a7.73,7.73,0,0,1-7,3.71,9.78,9.78,0,0,1-5.47-1.64,10.87,10.87,0,0,1-3.87-4.59,15.88,15.88,0,0,1-1.37-6.76,17.85,17.85,0,0,1,1.24-6.76,9.81,9.81,0,0,1,3.73-4.65,10,10,0,0,1,5.56-1.62,8.31,8.31,0,0,1,6.86,3.42V278h4.2V312.4ZM320.16,300q0,4.78,2,7.15a6.09,6.09,0,0,0,4.76,2.37,6,6,0,0,0,4.7-2.26q1.94-2.26,1.93-6.91,0-5.1-2-7.5a6.08,6.08,0,0,0-4.86-2.39,5.86,5.86,0,0,0-4.7,2.3C320.79,294.27,320.16,296.69,320.16,300Z" transform="translate(-140.56 -173.59)"/><path class="cls-1" d="M361.08,304.39l4.36.54a10.68,10.68,0,0,1-3.82,5.93,11.54,11.54,0,0,1-7.13,2.11,11.37,11.37,0,0,1-8.66-3.37q-3.19-3.36-3.2-9.43,0-6.29,3.24-9.75a11,11,0,0,1,8.39-3.47,10.63,10.63,0,0,1,8.16,3.4q3.16,3.4,3.16,9.56c0,.25,0,.63,0,1.13H347a9.59,9.59,0,0,0,2.32,6.28,6.94,6.94,0,0,0,5.21,2.18,6.5,6.5,0,0,0,4-1.22A8.1,8.1,0,0,0,361.08,304.39Zm-13.85-6.82h13.9a8.37,8.37,0,0,0-1.6-4.71,6.44,6.44,0,0,0-5.22-2.44,6.7,6.7,0,0,0-4.89,1.95A7.68,7.68,0,0,0,347.23,297.57Z" transform="translate(-140.56 -173.59)"/><path class="cls-1" d="M409.13,300.36l4.54,1.15a15.27,15.27,0,0,1-5.14,8.54,14.18,14.18,0,0,1-9.08,2.94,16.3,16.3,0,0,1-9-2.26,14.11,14.11,0,0,1-5.29-6.55A23.22,23.22,0,0,1,383.3,295a20.25,20.25,0,0,1,2.05-9.37,14.1,14.1,0,0,1,5.84-6.07,17.07,17.07,0,0,1,8.33-2.07,14.06,14.06,0,0,1,8.67,2.62,13.63,13.63,0,0,1,4.9,7.39l-4.48,1a10.61,10.61,0,0,0-3.47-5.46,9.23,9.23,0,0,0-5.72-1.71,11.09,11.09,0,0,0-6.62,1.9,10,10,0,0,0-3.74,5.1,20.72,20.72,0,0,0-1.07,6.59,21,21,0,0,0,1.27,7.66,9.54,9.54,0,0,0,4,4.88,11.1,11.1,0,0,0,5.83,1.62,9.76,9.76,0,0,0,6.47-2.2A11.29,11.29,0,0,0,409.13,300.36Z" transform="translate(-140.56 -173.59)"/><path class="cls-1" d="M419.93,312.4v-4.8h4.81v4.8Z" transform="translate(-140.56 -173.59)"/><path class="cls-1" d="M442.43,312.4,429.12,278H434L443,303q1.08,3,1.81,5.62c.53-1.87,1.14-3.75,1.85-5.62l9.28-25h4.64L447.1,312.4Z" transform="translate(-140.56 -173.59)"/><path class="cls-1" d="M460.88,312.4v-4.8h4.8v4.8Z" transform="translate(-140.56 -173.59)"/></svg>