<svg id="Capa_1" data-name="Capa 1" xmlns="http://www.w3.org/2000/svg" viewBox="0 0 20 15"><defs><style>.cls-1{fill:#1c2746;}.cls-2{fill:#fefefe;}</style></defs><path class="cls-1" d="M20,14.68a.71.71,0,0,1-.79.55c-.22,0-.45,0-.68,0s-.14,0-.17.16a2.4,2.4,0,0,1-2.17,2.12A2.4,2.4,0,0,1,14,15.39c0-.14-.07-.17-.18-.17H8.17c-.09,0-.13,0-.16.15C7.7,16.68,6.86,17.5,5.83,17.5a2.4,2.4,0,0,1-2.16-2.12c0-.12-.06-.16-.16-.16h-1c-.4,0-.64-.3-.64-.81q0-1,0-2c0-.14,0-.18-.14-.18-.32,0-.64,0-1,0A.72.72,0,0,1,0,11.71v-.4a.73.73,0,0,1,.78-.55c.34,0,.68,0,1,0h4a.57.57,0,0,0,.55-.34.84.84,0,0,0,0-.74.58.58,0,0,0-.56-.41h-5A.74.74,0,0,1,0,8.74v-.4a.74.74,0,0,1,.78-.55c.86,0,1.72,0,2.58,0h.78A.69.69,0,0,0,4.71,7c0-.42-.21-.66-.57-.67H1.22a.66.66,0,0,1-.63-.73.67.67,0,0,1,.63-.75h.53c.1,0,.13,0,.13-.16,0-.46,0-.92,0-1.39s.23-.82.65-.82H12.91c.15,0,.18,0,.18.23,0,1.37,0,2.74,0,4.11,0,.57.22.86.68.86H18a1.65,1.65,0,0,1,.44,0A2,2,0,0,1,20,9.54l0,0M4.77,14.65A1.24,1.24,0,0,0,5.85,16a1.22,1.22,0,0,0,1.06-1.34,1.25,1.25,0,0,0-1.06-1.38A1.25,1.25,0,0,0,4.77,14.65Zm10.35,0A1.25,1.25,0,0,0,16.21,16a1.26,1.26,0,0,0,1.06-1.36,1.25,1.25,0,0,0-1.08-1.37A1.25,1.25,0,0,0,15.12,14.67Z" transform="translate(0 -2.5)"/><path class="cls-2" d="M17.48,6.22c-.75-1.7-1.61-3.16-3.22-3.55v3.4c0,.13,0,.15.12.15Z" transform="translate(0 -2.5)"/><path class="cls-1" d="M17.48,6.22h-3.1c-.09,0-.12,0-.12-.15V2.67C15.87,3.06,16.73,4.52,17.48,6.22Z" transform="translate(0 -2.5)"/></svg>