<svg id="Capa_1" data-name="Capa 1" xmlns="http://www.w3.org/2000/svg" viewBox="0 0 20 20"><defs><style>.cls-1{fill:#1c2746;}</style></defs><path class="cls-1" d="M5.51,0a2.69,2.69,0,0,1,.67.3,1.57,1.57,0,0,1,.66,1.25A17,17,0,0,0,7,3.3a16.6,16.6,0,0,0,.47,2,1.57,1.57,0,0,1-.33,1.42L5.42,8.91c-.06.08,0,.13,0,.21a12.73,12.73,0,0,0,5.2,5.31c.39.2.38.21.72,0l2.07-1.57a1.46,1.46,0,0,1,1.29-.24c.53.13,1.05.3,1.59.4a12.81,12.81,0,0,0,2.05.19,1.63,1.63,0,0,1,1.51.92c.06.12.06.27.15.37v4.3c-.06,0-.06.07-.07.1A1.61,1.61,0,0,1,18.31,20a19.58,19.58,0,0,1-4.44-.57,18.26,18.26,0,0,1-6.24-2.94A18.29,18.29,0,0,1,1.69,9.27,18.07,18.07,0,0,1,.06,3.06.78.78,0,0,0,0,2.66V1.25c.06,0,.06-.08.07-.12a1.58,1.58,0,0,1,.85-1C1,.09,1.17.1,1.25,0Z"/></svg>