<svg id="Capa_1" data-name="Capa 1" xmlns="http://www.w3.org/2000/svg" viewBox="0 0 50 50.01"><defs><style>.cls-1{fill:#1c2746;}</style></defs><path class="cls-1" d="M23.05.06H27c0,.14.16.09.24.09A23.07,23.07,0,0,1,35,2.09,24.73,24.73,0,0,1,49.84,21.51a7.32,7.32,0,0,0,.26,1.6v4c-.14,0-.1.15-.1.24a26,26,0,0,1-1,5.1A25,25,0,0,1,.36,28.65,6.21,6.21,0,0,0,.1,27.11V23c.13,0,.09-.15.1-.24a27.53,27.53,0,0,1,.49-3.13A25,25,0,0,1,21.5.32,6.29,6.29,0,0,0,23.05.06ZM15.49,11H12.66A1.55,1.55,0,0,0,11,12.63a25.6,25.6,0,0,0,1.69,9.25A26.39,26.39,0,0,0,27.1,37a25.75,25.75,0,0,0,10.42,2.17,1.53,1.53,0,0,0,1.63-1.57q0-2.88,0-5.76a1.51,1.51,0,0,0-1.54-1.55A18.11,18.11,0,0,1,30,28.52a1.54,1.54,0,0,0-2.2.78c-.33.65-.65,1.31-.95,2-.1.22-.18.24-.39.12a22.26,22.26,0,0,1-7.71-7.72c-.13-.21-.11-.28.11-.38.64-.29,1.26-.6,1.89-.91a1.58,1.58,0,0,0,.83-2.33,17.9,17.9,0,0,1-1.68-7.4A1.55,1.55,0,0,0,18.22,11Z" transform="translate(-0.1 -0.06)"/></svg>