<svg id="Capa_1" data-name="Capa 1" xmlns="http://www.w3.org/2000/svg" viewBox="0 0 15 20"><defs><style>.cls-1{fill:#1c2746;}</style></defs><path class="cls-1" d="M10.61,0a4.23,4.23,0,0,0,.62.11,7.37,7.37,0,0,1,5.5,4,6.67,6.67,0,0,1,.75,3.66,9.13,9.13,0,0,1-.7,2.75,24.51,24.51,0,0,1-2.66,4.77,44.35,44.35,0,0,1-3.53,4.44.7.7,0,0,1-1.18,0,39,39,0,0,1-5.29-7.3A13.59,13.59,0,0,1,2.66,8.67,6.81,6.81,0,0,1,4,3,7.38,7.38,0,0,1,8.55.14,5.35,5.35,0,0,0,9.35,0ZM10,10.89a3.72,3.72,0,0,0,3.76-3.67A3.71,3.71,0,0,0,10,3.6,3.71,3.71,0,0,0,6.23,7.26,3.73,3.73,0,0,0,10,10.89Z" transform="translate(-2.5)"/></svg>