<svg id="Capa_1" data-name="Capa 1" xmlns="http://www.w3.org/2000/svg" viewBox="0 0 20 20"><defs><style>.cls-1{fill:#1c2746;}</style></defs><path class="cls-1" d="M13.59,20H13c0-.07-.11-.06-.17-.08a1.63,1.63,0,0,1-1.15-1.31,4.8,4.8,0,0,1,0-.93c0-.15,0-.19-.18-.18H9.21A2.49,2.49,0,0,1,6.67,15V13.39a.92.92,0,0,1,0-.29.86.86,0,0,1,.9-.6.83.83,0,0,1,.73.8c0,.54,0,1.08,0,1.62a.84.84,0,0,0,.91.91c.74,0,1.48,0,2.22,0,.18,0,.21-.06.21-.22V3.37a1.64,1.64,0,0,1,1.14-1.62s.09,0,.11-.07H9.17a.83.83,0,0,0-.84.84c0,.27,0,.53,0,.8a.83.83,0,1,1-1.66,0V2.44A2.49,2.49,0,0,1,8.58.07c.06,0,.13,0,.17-.07h9.8l0,0A1.61,1.61,0,0,1,20,1.27s0,.09.05.1V17c-.06,0-.05.08-.06.11a1.69,1.69,0,0,1-1.15,1.18l-.48.16Z"/><path class="cls-1" d="M0,8.12a1,1,0,0,1,.64-.6,1.37,1.37,0,0,1,.29,0H4c.15,0,.19,0,.18-.18,0-.73,0-1.47,0-2.2a.82.82,0,0,1,.51-.88.84.84,0,0,1,1,.26L8.86,7.68A.83.83,0,0,1,8.85,9L5.62,12.22A.83.83,0,0,1,4.2,11.9a1.38,1.38,0,0,1,0-.35V9.36c0-.15,0-.2-.19-.19-.93,0-1.87,0-2.81,0A1.09,1.09,0,0,1,0,8.55Z"/></svg>